<svg width="1725" height="466" viewBox="0 0 1725 466" fill="none" xmlns="http://www.w3.org/2000/svg">
<g clip-path="url(#clip0_505_134)">
<path fill-rule="evenodd" clip-rule="evenodd" d="M55.5154 0H410.485C441.013 0 466 25.5703 466 56.8373V410.163C466 441.418 441.013 467 410.485 467H55.5154C24.9756 467 0 441.43 0 410.163V56.8373C0 25.5703 24.9756 0 55.5154 0Z" fill="#6F6CD9"/>
<path fill-rule="evenodd" clip-rule="evenodd" d="M466.11 110.61H182.01C163.3 110.61 147.99 125.92 147.99 144.63V150.79C147.99 167.94 162.02 181.97 179.17 181.97H466.1V110.61H466.11Z" fill="#C9C9C9"/>
<path fill-rule="evenodd" clip-rule="evenodd" d="M416.85 111.12H253.05C234.25 111.12 218.86 126.59 218.86 145.49V147.48C218.86 166.38 234.24 181.85 253.05 181.85H295.68V449.39C295.68 455.39 298.57 461.95 303.02 466.3H366.73C371.18 461.95 374.07 455.39 374.07 449.39V181.85H416.84C435.64 181.85 451.03 166.38 451.03 147.48V145.49C451.03 126.58 435.65 111.12 416.85 111.12Z" fill="white"/>
<path fill-rule="evenodd" clip-rule="evenodd" d="M500.87 265.74C503.39 272.75 508.42 286.99 510.93 294.11C513.44 301.23 513.44 301.23 513.44 301.23C513.44 301.23 513.44 301.23 515.79 300.14C518.14 299.05 522.83 296.87 527.85 295.12C532.88 293.36 538.24 292.02 543.35 290.85C548.46 289.68 553.32 288.67 558.26 287.92C563.2 287.17 568.23 286.66 573.08 286.33C577.94 285.99 582.63 285.83 588.07 285.91C593.51 285.99 599.71 286.33 604.91 287.5C610.1 288.67 614.29 290.68 616.9 293.32C619.51 295.96 620.54 299.23 621.12 304.26C621.71 309.29 621.85 316.06 621.92 319.45C621.99 322.84 621.99 322.84 621.99 322.84C621.99 322.84 621.99 322.84 617.89 322.92C613.79 323 605.58 323.17 596.28 323.84C586.98 324.51 576.6 325.68 564.7 328.11C552.81 330.54 539.41 334.22 529.44 338.41C519.47 342.6 512.94 347.29 507.66 352.57C502.38 357.85 498.36 363.71 495.6 370.33C492.84 376.95 491.33 384.32 491.24 392.61C491.16 400.9 492.5 410.12 495.01 418.07C497.52 426.03 501.21 432.73 504.81 437.92C508.41 443.11 511.93 446.8 516.2 450.23C520.47 453.66 525.5 456.85 531.28 459.36C537.06 461.87 543.59 463.72 550.63 464.64C557.67 465.56 565.2 465.56 572.07 464.97C578.94 464.38 585.14 463.21 590.16 461.87C595.19 460.53 599.04 459.02 603.56 456.84C608.08 454.66 613.28 451.81 617.05 449.39C620.82 446.96 623.16 444.95 624.34 443.95C625.51 442.94 625.51 442.94 625.91 445.8C626.31 448.66 627.1 454.38 628.5 457.82C629.9 461.26 631.91 462.44 634.95 463.36C637.99 464.28 642.05 464.95 652.21 465.21C662.37 465.47 678.62 465.33 686.74 465.07C694.86 464.81 694.86 464.43 694.86 464.24C694.86 464.05 694.86 464.05 694.78 436.33C694.7 408.61 694.53 353.16 693.94 322.59C693.35 292.02 692.35 286.32 690.59 280.88C688.83 275.44 686.32 270.24 682.8 265.3C679.28 260.36 674.76 255.67 670.15 251.9C665.54 248.13 660.85 245.28 654.57 242.77C648.29 240.26 640.42 238.08 632.46 236.49C624.5 234.9 616.46 233.89 608.25 233.64C600.04 233.39 591.67 233.89 581.53 235.06C571.4 236.23 559.5 238.08 547.11 241.01C534.71 243.94 521.82 247.96 513.6 251.17C505.38 254.38 501.84 256.78 500.08 257.87C498.33 258.96 498.35 258.74 500.87 265.74ZM622.02 367.2C622.08 375.94 622.17 393.36 622.21 402.07C622.25 410.78 622.25 410.78 621.16 411.58C620.07 412.38 617.89 413.97 615.09 415.43C612.28 416.9 608.85 418.24 605.42 419.03C601.99 419.83 598.55 420.08 595.33 420.16C592.11 420.24 589.09 420.16 585.87 419.24C582.65 418.32 579.21 416.56 576.57 414.84C573.93 413.12 572.09 411.45 570.41 409.02C568.73 406.59 567.23 403.41 566.35 399.64C565.47 395.87 565.22 391.51 565.3 388.04C565.38 384.56 565.8 381.97 566.77 379.54C567.73 377.11 569.24 374.85 571.08 372.88C572.92 370.91 575.1 369.24 577.66 367.73C580.21 366.22 583.15 364.88 586.75 363.75C590.35 362.62 594.62 361.7 600.59 360.83C606.56 359.96 614.22 359.15 618.06 358.74C621.89 358.33 621.89 358.33 621.91 358.36C621.92 358.4 621.96 358.46 622.02 367.2Z" fill="#6F6CD9"/>
<path d="M788.24 137.39H714.87V465.05H788.24V137.39Z" fill="#6F6CD9"/>
<path fill-rule="evenodd" clip-rule="evenodd" d="M961.68 240.63C975.45 240.74 1002.92 240.57 1016.66 240.49C1030.4 240.41 1030.4 240.41 1030.4 240.41C1030.4 240.41 1030.4 240.41 1017 254.73C1003.6 269.05 976.8 297.7 963.4 312.02C950 326.34 950 326.34 950 326.34C950 326.34 950 326.34 964.16 349.37C978.31 372.4 1006.62 418.47 1020.78 441.5C1034.93 464.53 1034.93 464.53 1034.93 464.53C1034.93 464.53 1034.93 464.53 1021.78 464.61C1008.63 464.69 982.33 464.86 969.18 464.95C956.03 465.03 956.03 465.03 956.03 465.03C956.03 465.03 956.03 465.03 947.32 450.46C938.61 435.89 921.19 406.74 912.48 392.16C903.77 377.59 903.77 377.59 903.77 377.59C903.77 377.59 903.77 377.59 899.52 382C895.26 386.41 886.75 395.23 882.5 399.65L881.53 400.66V464.54H808.16V136.88H881.53V318.93L889.18 309.9C900.99 295.97 924.6 268.11 936.34 254.09C948.08 240.08 947.94 239.91 947.9 240.02C947.84 240.13 947.91 240.52 961.68 240.63Z" fill="#6F6CD9"/>
<path fill-rule="evenodd" clip-rule="evenodd" d="M1651.82 240.64C1665.59 240.75 1693.06 240.58 1706.8 240.5C1720.54 240.42 1720.54 240.42 1720.54 240.42C1720.54 240.42 1720.54 240.42 1707.14 254.74C1693.74 269.06 1666.94 297.71 1653.54 312.03C1640.14 326.35 1640.14 326.35 1640.14 326.35C1640.14 326.35 1640.14 326.35 1654.3 349.38C1668.45 372.41 1696.76 418.48 1710.92 441.51C1725.07 464.54 1725.07 464.54 1725.07 464.54C1725.07 464.54 1725.07 464.54 1711.92 464.62C1698.77 464.7 1672.47 464.87 1659.32 464.96C1646.17 465.04 1646.17 465.04 1646.17 465.04C1646.17 465.04 1646.17 465.04 1637.46 450.47C1628.75 435.9 1611.33 406.75 1602.62 392.17C1593.91 377.6 1593.91 377.6 1593.91 377.6C1593.91 377.6 1593.91 377.6 1589.66 382.01C1585.4 386.42 1576.89 395.24 1572.64 399.66L1571.67 400.67V464.55H1498.3V136.89H1571.67V318.94L1579.32 309.91C1591.13 295.98 1614.74 268.12 1626.48 254.1C1638.22 240.09 1638.08 239.92 1638.04 240.03C1637.98 240.14 1638.05 240.53 1651.82 240.64Z" fill="#6F6CD9"/>
<path fill-rule="evenodd" clip-rule="evenodd" d="M1269.05 239.77H1337.7V262.87C1338.11 262.62 1338.56 262.36 1339.08 262.06C1343.77 259.34 1353.15 253.89 1363.12 249.58C1373.09 245.27 1383.64 242.08 1392.52 240.2C1401.4 238.31 1408.6 237.73 1415.6 237.85C1422.59 237.98 1429.38 238.81 1435.66 240.66C1441.94 242.5 1447.72 245.35 1453 249.62C1458.28 253.89 1463.05 259.59 1466.69 266.37C1470.33 273.15 1472.85 281.03 1474.48 288.23C1476.11 295.43 1476.87 301.97 1477.24 331.24C1477.62 360.51 1477.62 412.53 1477.62 438.53C1477.62 464.54 1477.62 464.54 1477.62 464.54C1477.62 464.54 1477.62 464.54 1465.52 464.62C1453.42 464.7 1429.21 464.87 1417.11 464.96C1405.01 465.04 1405.01 465.04 1405.01 465.04C1405.01 465.04 1405.01 465.04 1404.88 440.58C1404.75 416.12 1404.5 367.21 1404 341.16C1403.5 315.11 1402.74 311.93 1401.66 309.12C1400.57 306.31 1399.15 303.89 1397.3 301.79C1395.46 299.7 1393.2 297.94 1390.68 296.72C1388.17 295.51 1385.4 294.84 1381.72 294.58C1378.03 294.33 1373.43 294.5 1369.2 295.21C1364.97 295.92 1361.12 297.18 1357.05 298.98C1352.99 300.78 1348.72 303.13 1344.9 305.43C1342.18 307.07 1339.69 308.7 1337.7 310.13V464.53H1269.05V239.77Z" fill="#6F6CD9"/>
<path d="M1099.01 466C1122.88 466 1142.23 446.65 1142.23 422.78C1142.23 398.91 1122.88 379.56 1099.01 379.56C1075.14 379.56 1055.79 398.91 1055.79 422.78C1055.79 446.65 1075.14 466 1099.01 466Z" fill="#6F6CD9"/>
<path d="M1205.88 214.71C1229.75 214.71 1249.1 195.36 1249.1 171.49C1249.1 147.62 1229.75 128.27 1205.88 128.27C1182.01 128.27 1162.66 147.62 1162.66 171.49C1162.66 195.36 1182.01 214.71 1205.88 214.71Z" fill="#6F6CD9"/>
<path d="M1242.57 240.71H1169.2V465.48H1242.57V240.71Z" fill="#6F6CD9"/>
</g>
<defs>
<clipPath id="clip0_505_134">
<rect width="1725" height="466" fill="white"/>
</clipPath>
</defs>
</svg>
