<svg width="228" height="57" viewBox="0 0 228 57" fill="none" xmlns="http://www.w3.org/2000/svg">
<g clip-path="url(#clip0_6_6277)">
<rect width="50" height="50" rx="10" fill="#6F6CD9"/>
<rect x="31.7896" y="12" width="8.42105" height="40" rx="4.21053" fill="white"/>
<rect x="16" y="19.619" width="7.61905" height="40" rx="3.80952" transform="rotate(-90 16 19.619)" fill="#C9C9C9"/>
<path d="M27.3758 19.619C26.5479 19.619 25.7426 19.3494 25.0816 18.8508C22.1632 16.6493 23.7202 12 27.3758 12H44.5295C48.1947 12 49.7455 16.6695 46.8085 18.8622C46.1503 19.3536 45.3509 19.619 44.5295 19.619L27.3758 19.619Z" fill="white"/>
</g>
<path d="M70.3047 23.3438C72.6745 23.3438 74.556 23.6237 75.9492 24.1836C77.3555 24.7305 78.3711 25.6159 78.9961 26.8398C79.6341 28.0508 79.9531 29.6914 79.9531 31.7617V46.3125H75.4219C74.8359 46.3125 74.3932 46.2734 74.0938 46.1953C73.7943 46.1172 73.5599 45.9349 73.3906 45.6484C73.2214 45.362 73.1367 44.9062 73.1367 44.2812V44.125C71.4701 45.5833 69.3997 46.3125 66.9258 46.3125C65.4805 46.3125 64.2044 46.013 63.0977 45.4141C62.0039 44.8021 61.1576 43.9557 60.5586 42.875C59.9596 41.7943 59.6602 40.5703 59.6602 39.2031C59.6602 37.9141 60.0117 36.7878 60.7148 35.8242C61.431 34.8477 62.4141 34.0924 63.6641 33.5586C64.888 33.0378 66.2747 32.6862 67.8242 32.5039C69.3737 32.3086 71.0208 32.2109 72.7656 32.2109V30.8633C72.7656 30.1992 72.6549 29.6979 72.4336 29.3594C72.2253 29.0208 71.8346 28.7865 71.2617 28.6562C70.7018 28.526 69.849 28.4609 68.7031 28.4609C67.8568 28.4609 66.763 28.6172 65.4219 28.9297C64.0938 29.2292 62.9479 29.6003 61.9844 30.043L60.5195 25.7852C61.1055 25.4336 61.9258 25.069 62.9805 24.6914C64.0352 24.3138 65.207 23.9948 66.4961 23.7344C67.7982 23.474 69.0677 23.3438 70.3047 23.3438ZM69.9531 41.8594C70.5 41.8594 71.0469 41.7617 71.5938 41.5664C72.1536 41.3711 72.5443 41.1562 72.7656 40.9219V35.6875C72.0625 35.7005 71.3333 35.7721 70.5781 35.9023C69.8229 36.0326 69.25 36.1888 68.8594 36.3711C68.3385 36.5794 67.9154 36.8659 67.5898 37.2305C67.2773 37.582 67.1211 38.1159 67.1211 38.832C67.1211 39.8216 67.3945 40.5768 67.9414 41.0977C68.4883 41.6055 69.1589 41.8594 69.9531 41.8594ZM97.1172 13.5391V46H89.8711V13.5391H97.1172ZM116.723 37.4062L114.613 39.6914L114.672 42.3086V46H107.426V13.5586H114.672V25.8438L114.438 31.9375L121.078 23.7344H129.301L121.391 32.3281L129.828 46H121.801L116.723 37.4062ZM135.82 42.3086C135.82 41.5404 136.016 40.8177 136.406 40.1406C136.797 39.4505 137.324 38.9036 137.988 38.5C138.665 38.0833 139.401 37.875 140.195 37.875C141.003 37.875 141.706 38.0508 142.305 38.4023C142.904 38.7539 143.366 39.2422 143.691 39.8672C144.017 40.4922 144.18 41.1953 144.18 41.9766C144.18 42.7578 143.991 43.4935 143.613 44.1836C143.236 44.8607 142.715 45.4076 142.051 45.8242C141.387 46.2279 140.658 46.4297 139.863 46.4297C139.082 46.4297 138.385 46.2539 137.773 45.9023C137.161 45.5378 136.68 45.043 136.328 44.418C135.99 43.793 135.82 43.0898 135.82 42.3086Z" fill="black"/>
<path d="M160.934 23.7344V46H153.668V23.7344H160.934ZM152.965 17.2891C152.965 16.5729 153.16 15.9089 153.551 15.2969C153.954 14.6719 154.488 14.1771 155.152 13.8125C155.829 13.4479 156.552 13.2656 157.32 13.2656C158.102 13.2656 158.792 13.4219 159.391 13.7344C160.003 14.0469 160.471 14.4896 160.797 15.0625C161.135 15.6224 161.305 16.2669 161.305 16.9961C161.305 17.7122 161.109 18.3828 160.719 19.0078C160.328 19.6198 159.801 20.1146 159.137 20.4922C158.473 20.8568 157.757 21.0391 156.988 21.0391C156.22 21.0391 155.53 20.8828 154.918 20.5703C154.306 20.2448 153.824 19.7956 153.473 19.2227C153.134 18.6497 152.965 18.0052 152.965 17.2891ZM177.824 23.7344L178 26.1172C178.885 25.375 179.999 24.737 181.34 24.2031C182.681 23.6693 183.99 23.3958 185.266 23.3828C186.815 23.3438 188.085 23.6042 189.074 24.1641C190.077 24.7109 190.826 25.6224 191.32 26.8984C191.815 28.1745 192.062 29.8672 192.062 31.9766V46H184.836V33.2656C184.836 32.1719 184.745 31.319 184.562 30.707C184.38 30.0951 184.087 29.6654 183.684 29.418C183.28 29.1576 182.72 29.0404 182.004 29.0664C181.444 29.0664 180.826 29.1966 180.148 29.457C179.484 29.7174 178.918 30.069 178.449 30.5117V46H171.223V23.7344H177.824ZM211.395 37.4062L209.285 39.6914L209.344 42.3086V46H202.098V13.5586H209.344V25.8438L209.109 31.9375L215.75 23.7344H223.973L216.062 32.3281L224.5 46H216.473L211.395 37.4062Z" fill="#6F6CD9"/>
<defs>
<clipPath id="clip0_6_6277">
<rect width="50" height="50" rx="10" fill="white"/>
</clipPath>
</defs>
</svg>
