<svg id="Layer_1" data-name="Layer 1" xmlns="http://www.w3.org/2000/svg" xmlns:xlink="http://www.w3.org/1999/xlink" width="406" height="306" viewBox="0 0 609.98 593.41" class="illustration styles_illustrationTablet__1DWOa"><defs><linearGradient id="linear-gradient" x1="316.53" y1="649.55" x2="298.51" y2="397.28" gradientUnits="userSpaceOnUse"><stop offset="0" stop-opacity="0"></stop><stop offset="0.49" stop-opacity="0.2"></stop><stop offset="0.52" stop-opacity="0.23"></stop><stop offset="0.99"></stop></linearGradient><linearGradient id="linear-gradient-2" x1="285.52" y1="1139.73" x2="306.45" y2="409.53" gradientTransform="translate(0.01 -172)" gradientUnits="userSpaceOnUse"><stop offset="0.01"></stop><stop offset="1" stop-opacity="0"></stop></linearGradient><linearGradient id="linear-gradient-3" x1="306.77" y1="534.33" x2="320.08" y2="706.16" gradientTransform="translate(-100.65 -175.59)" xlink:href="#linear-gradient-2"></linearGradient><linearGradient id="linear-gradient-4" x1="409.21" y1="985.55" x2="404.91" y2="96.39" gradientTransform="translate(-100.65 -175.59)" gradientUnits="userSpaceOnUse"><stop offset="0.02" stop-color="#fff" stop-opacity="0"></stop><stop offset="0.58" stop-color="#fff" stop-opacity="0.39"></stop><stop offset="0.68" stop-color="#fff" stop-opacity="0.68"></stop><stop offset="1" stop-color="#fff"></stop></linearGradient><linearGradient id="linear-gradient-5" x1="226.34" y1="519.28" x2="228.88" y2="86.81" gradientTransform="matrix(1, 0, 0, -1, 0.01, 596)" gradientUnits="userSpaceOnUse"><stop offset="0" stop-opacity="0"></stop><stop offset="0.99"></stop></linearGradient><linearGradient id="linear-gradient-6" x1="411.53" y1="422.1" x2="380.28" y2="-148.06" xlink:href="#linear-gradient-5"></linearGradient><linearGradient id="linear-gradient-7" x1="536.38" y1="379.8" x2="524.88" y2="552.23" gradientTransform="translate(-100.65 -175.59)" xlink:href="#linear-gradient-2"></linearGradient><linearGradient id="linear-gradient-8" x1="264.07" y1="265.81" x2="272.97" y2="426.79" gradientTransform="translate(-100.65 -175.59)" xlink:href="#linear-gradient-2"></linearGradient><linearGradient id="linear-gradient-9" x1="514.75" y1="396.46" x2="566.88" y2="396.46" gradientTransform="translate(-100.65 -175.59)" gradientUnits="userSpaceOnUse"><stop offset="0" stop-color="#ecc4d7"></stop><stop offset="0.42" stop-color="#efd4d1"></stop><stop offset="1" stop-color="#f2eac9"></stop></linearGradient><linearGradient id="linear-gradient-10" x1="309.99" y1="562.41" x2="309.99" y2="467.8" xlink:href="#linear-gradient-5"></linearGradient><linearGradient id="linear-gradient-11" x1="331.55" y1="294.74" x2="344.76" y2="303.24" xlink:href="#linear-gradient-9"></linearGradient><linearGradient id="linear-gradient-12" x1="224.94" y1="422.27" x2="146.95" y2="406.51" xlink:href="#linear-gradient-5"></linearGradient><linearGradient id="linear-gradient-13" x1="376.46" y1="300.59" x2="422.39" y2="300.59" xlink:href="#linear-gradient-9"></linearGradient><linearGradient id="linear-gradient-14" x1="299.25" y1="353.26" x2="310.52" y2="353.26" xlink:href="#linear-gradient-9"></linearGradient><linearGradient id="linear-gradient-15" x1="414.55" y1="390.05" x2="450.88" y2="390.05" xlink:href="#linear-gradient-9"></linearGradient><linearGradient id="linear-gradient-16" x1="343.32" y1="269.04" x2="348.1" y2="297.55" gradientTransform="translate(-100.65 -175.59)" gradientUnits="userSpaceOnUse"><stop offset="0.2" stop-color="#ecc4d7"></stop><stop offset="0.37" stop-color="#f0dcce"></stop><stop offset="1" stop-color="#f2eac9"></stop></linearGradient><linearGradient id="linear-gradient-17" x1="467.9" y1="412.41" x2="495.89" y2="412.41" xlink:href="#linear-gradient-9"></linearGradient><linearGradient id="linear-gradient-18" x1="201.95" y1="324" x2="198.77" y2="325.2" gradientTransform="translate(0.01 -172)" gradientUnits="userSpaceOnUse"><stop offset="0" stop-color="#68e1fd"></stop><stop offset="0.2" stop-color="#5db4cf"></stop><stop offset="0.46" stop-color="#50819b"></stop><stop offset="0.69" stop-color="#475c76"></stop><stop offset="0.87" stop-color="#41455e"></stop><stop offset="0.99" stop-color="#3f3d56"></stop></linearGradient><linearGradient id="linear-gradient-19" x1="366.5" y1="324.38" x2="354.85" y2="372.07" gradientTransform="translate(-100.65 -175.59)" xlink:href="#linear-gradient-5"></linearGradient><linearGradient id="linear-gradient-20" x1="485.48" y1="458.32" x2="629.9" y2="537.26" gradientTransform="translate(-100.65 -175.59)" xlink:href="#linear-gradient-5"></linearGradient><linearGradient id="linear-gradient-21" x1="487.77" y1="426.19" x2="388.73" y2="455.14" xlink:href="#linear-gradient-9"></linearGradient></defs><title>5.online_world</title><path d="M138,74.18C105.72,87.1,71.22,96,42.79,116S-7.14,171.41,2.23,204.88C9.5,230.8,33.74,251.07,34.84,278c.88,21.47-13.32,40.22-20.86,60.34-15.23,40.65-2.06,88,24.89,122s65.8,56.62,105.6,73.94a590.18,590.18,0,0,0,299.88,45.16c30.46-3.42,61.19-9.42,88.19-23.92s50.09-38.53,57.64-68.23c10.27-40.35-8.94-83.9,1.56-124.19,4.11-15.8,12.63-30.23,16.26-46.15,8.73-38.37-12.54-77.56-39.6-106.12s-60.46-50.92-85.2-81.52c-17.14-21.19-29.7-45.84-47.32-66.63C401.26,21.77,345.35-2.37,291.71.19,238.42,2.72,188.25,54.05,138,74.18Z" transform="translate(0 0)" fill="#6F6CD9" opacity="0.18" style="isolation: isolate;"></path><path d="M119.8,540.63l1.53,6.94c-9.94,7.21-22.67,8.93-34.63,11.7s-24.64,7.58-30.81,18.19c8.89,11.52,25.45,12.91,40,13.29q176,4.59,352.17,1.26c37.26-.71,74.73-1.7,111.3-8.87,2.62-.51,5.55-1.27,6.86-3.6,2.24-4-2-8.47-5.87-10.81a81.15,81.15,0,0,0-42.51-11.53c-5.62.07-13-.53-14.29-6-.44-2,.16-4,.09-6-.16-5-4.45-9-9.16-10.5s-9.81-1-14.74-.55c-92.91,8.94-187.25,2-280.47-2.76-14.78-.76-28.68,7.34-43.36,5.46C142.13,535.11,132.16,532.41,119.8,540.63Z" transform="translate(0 0)" fill="url(#linear-gradient)"></path><rect x="118.12" y="37.54" width="373.77" height="501.74" rx="35.02" fill="#6F6CD9"></rect><rect x="118.12" y="37.54" width="373.77" height="501.74" rx="35.02" fill="url(#linear-gradient-2)"></rect><path d="M308.55,379.05l-194.78-1.23a27.85,27.85,0,0,0-28,27.69l-.18,28.7a27.87,27.87,0,0,0,27.69,28.05h0L298,463.41A47.28,47.28,0,0,1,330.6,476.8l5.17,5,.29-46,.07-11,.11-17.72a27.85,27.85,0,0,0-27.69-28Z" transform="translate(0 0)" fill="url(#linear-gradient-3)"></path><path d="M467,95.24V492.1a31.1,31.1,0,0,1-31.08,31.08H176.19a31.07,31.07,0,0,1-31.07-31.07h0V95.24a31.07,31.07,0,0,1,31.06-31.08H435.89A31.09,31.09,0,0,1,467,95.24Z" transform="translate(0 0)" fill="#6F6CD9"></path><path d="M467,95.24V492.1a31.1,31.1,0,0,1-31.08,31.08H176.19a31.07,31.07,0,0,1-31.07-31.07h0V95.24a31.07,31.07,0,0,1,31.06-31.08H435.89A31.09,31.09,0,0,1,467,95.24Z" transform="translate(0 0)" opacity="0.69" fill="url(#linear-gradient-4)" style="isolation: isolate;"></path><path d="M306.57,111.3c.91-4,1.82-8,1.46-12.08a16.91,16.91,0,0,1-11.86,5.11,2.65,2.65,0,0,0-1.54.29,2.6,2.6,0,0,0-.79,2.27c0,4.91-.08,10.09-2.59,14.3s-6.83,6.6-11.34,8c-10,3.18-20.79,1.79-31.14.19-2.37-.37-4.85-.79-6.73-2.27-2.55-2-3.42-5.56-3.08-8.78s1.72-6.23,3-9.23c2-4.75,3.63-9.82,3.1-14.93s-3.78-10.24-8.76-11.5A6.39,6.39,0,0,0,230.2,84a9,9,0,0,0-1.78,3,119.74,119.74,0,0,0-8.16,32.63c-5.78-.54-11.29,2.4-17,3.2-3.67.52-54.4.78-58.09.53,0,0-.52,5.83.85,7.71s8.81,1.91,11,2.74c15.59,6,32.74,5.61,49.36,7.13,28.38,2.59,62.49,11.67,87.55-6.65C301.72,128.59,304.49,120.44,306.57,111.3Z" transform="translate(0 0)" opacity="0.6" fill="url(#linear-gradient-5)" style="isolation: isolate;"></path><path d="M345.73,245.59c.49-9.53-2.35-18.94-6.19-27.68s-8.67-17-12.49-25.75c-1-2.21-1.68-5.23.26-6.66.6,1.5,2.93,1.07,4.09-.06s2-2.75,3.61-3.12A75.17,75.17,0,0,1,340.9,194l11.36,26c1.21,2.78,2.48,5.65,4.77,7.63,3.55,3.06,8.77,3.35,13.32,3.24a62.49,62.49,0,0,0,9-.9c3.33-.58,7.1-1.54,9.06-4.38,3-4.4.14-10.65,2-15.66a12.7,12.7,0,0,1,4.1-5.24c2.31-1.87,5.49-3.33,8.19-2.08a9,9,0,0,1,3.27,3.14c7,9.76,10.91,21.72,19.38,30.21a19.35,19.35,0,0,0,13.08-5.28c3.42-3.25,6-7.27,8.67-11.14,4.6-6.64,9.63-13,14.66-19.28l5.42-6.81a1.32,1.32,0,0,1,.62-.5c.62-.16,1,.63,1.18,1.26,2,9.19-4.06,18.11-10.56,24.89-5,5.23-10.73,10.28-14.25,16.47a4.46,4.46,0,0,0,1.68,6.09,4.51,4.51,0,0,0,1.82.57c11.86,1,24-1.33,35.94.12,3.61.44,7.84,1.79,8.43,5.6a6,6,0,0,1-2,5.2c-2.54,2.42-6,2.9-9.36,3.31-37.83,4.65-76,6-114.08,7.25a13,13,0,0,1-4.47-.37c-3.16-1-5-4.24-6.79-7A50.17,50.17,0,0,0,345.73,245.59Z" transform="translate(0 0)" opacity="0.6" fill="url(#linear-gradient-6)" style="isolation: isolate;"></path><path d="M539.85,273.41v25.36a24.5,24.5,0,0,1-24.36,24.64H353.87A40.84,40.84,0,0,0,325.23,335l-4.54,4.39v-66a24.6,24.6,0,0,1,17-23.46,24.16,24.16,0,0,1,7.41-1.16H515.5A24.49,24.49,0,0,1,539.85,273.41Z" transform="translate(0 0)" fill="url(#linear-gradient-7)"></path><path d="M275.81,153.55l4.2,64.28h-4.2l-4.46-4.29c-7.58-7.27-19.12-9.87-29.61-9.87H82.86a24,24,0,0,1-24-24l1.49-26.12a24,24,0,0,1,24-24h167.5A23.9,23.9,0,0,1,271.66,140h0A23.74,23.74,0,0,1,275.81,153.55Z" transform="translate(0 0)" fill="url(#linear-gradient-8)"></path><path d="M280,153.55v64.28l-4.47-4.29a40.6,40.6,0,0,0-28.14-11.33H88.46a24,24,0,0,1-24-24V153.55a24,24,0,0,1,24-24H256A23.92,23.92,0,0,1,275.81,140h0A23.75,23.75,0,0,1,280,153.55Z" transform="translate(0 0)" fill="#fff"></path><path d="M539.85,271.35V296a24,24,0,0,1-24,24H357a40.65,40.65,0,0,0-28.15,11.33l-4.5,4.26V271.35a24,24,0,0,1,23.9-24H515.88A24,24,0,0,1,539.85,271.35Z" transform="translate(0 0)" fill="#fff"></path><path d="M364.11,242.47c-1-2-2.6-3.52-3.58-5.46-2.1-4.14-.87-9.28,1.61-13.2,1-1.63,2.3-3.2,2.67-5.09.43-2.22-.43-4.64.5-6.7.76-1.66,2.48-2.62,4-3.68,2.31-1.65,4.31-3.81,6.92-4.91s6.23-.7,7.51,1.84c2.41-1.19,5.46-.11,7.26,1.87s2.6,4.68,3.15,7.3a62.83,62.83,0,0,0,2.06,8.88c1.06,2.85,2.92,5.56,5.67,6.85,5.34,2.5,12.78-.74,17,3.42,2.16,2.15,2.93,5.95,5.86,6.77,1.51.42,3.15-.13,4.65.27,2.59.7,3.66,3.83,3.72,6.51a19.11,19.11,0,0,1-5.87,14.1c-1.86,1.77-4.24,3.42-4.62,6a18.22,18.22,0,0,0,.3,3.9,9,9,0,0,1-14.37,7.94c-2.12-1.58-3.91-4.23-6.55-4.11a7.21,7.21,0,0,0-3.2,1.28A22.72,22.72,0,0,1,392,279.4a7.78,7.78,0,0,1-7.05-1.62c-1.5-1.47-2.06-3.61-2.79-5.59-1.18-3.2-3.33-6.49-6.68-7.13-1.44-.27-2.93,0-4.37-.24C361.35,263.25,367.08,248.46,364.11,242.47Z" transform="translate(0 0)" fill="#3f3d56"></path><path d="M442.27,208.86a45.62,45.62,0,0,0,5.44-12.5,15.74,15.74,0,0,1,2.5-5.14.87.87,0,0,1,1.57.6l-.4,4c2-2.32,4.37-6.57,7.72-10.1a.49.49,0,0,1,.69,0,.5.5,0,0,1,.11.51L457.2,193a.27.27,0,0,0,.18.34h0a.27.27,0,0,0,.28-.08l4-5.39c2.17-1.56,1.92.73,1.72,1.27l-2.61,5a.33.33,0,0,0,.52.38,36,36,0,0,1,3.63-3.12.84.84,0,0,1,1.2,1.11l-4,5.59c-.48.67-.89,1.06-.07,1l2.88-1.06c.86-.34.45,1.63-.3,2.16-4.19,3-5.89,5.34-8.79,7.83s-21.51,33.18-30,44.06c-3.09,3.95-9,6.58-11.39.22-1.79-4.82,3.7-9.33,6.34-12.82Q432.15,224.66,442.27,208.86Z" transform="translate(0 0)" fill="url(#linear-gradient-9)"></path><path d="M312.58,379.05,117.8,377.82a27.85,27.85,0,0,0-28,27.69l-.18,28.7a27.87,27.87,0,0,0,27.69,28.05h0L302,463.41a47.28,47.28,0,0,1,32.65,13.39l5.17,5,.29-46,.07-11,.11-17.72a27.85,27.85,0,0,0-27.69-28Z" transform="translate(0 0)" fill="#fff"></path><path d="M278.29,50.77h63.42a3,3,0,0,1,3,3h0a3,3,0,0,1-3,3H278.29a3,3,0,0,1-3-3h0A3,3,0,0,1,278.29,50.77Z" transform="translate(0 0)" fill="url(#linear-gradient-10)"></path><path d="M277.83,155.13c-5.28,2.28-6.21,1.92-11.86,2.91s-10.07.27-15.45-1.74c-3.69,11.26-7.61,23.56-8.61,35.36a78.34,78.34,0,0,1-1.71,10.55h-34c-.1-.76-.19-1.54-.27-2.35a174.37,174.37,0,0,1,.37-32.63,19,19,0,0,0,.17-2,6.85,6.85,0,0,0-.12-1.63,10.83,10.83,0,0,0-1.42-3.25c-1.35-2.37-4.61-6-6.42-8.63-.24-.36-.46-.7-.64-1,1.09-5,5.9-7.45,8.14-12a28.11,28.11,0,0,1,6.93-9.11,21.66,21.66,0,0,1,3-2.12c3.84-2.23,8.27-3.12,12.69-3.79.69-.11,1.37-.21,2.06-.3a18.12,18.12,0,0,0,9.71,3.46,12.93,12.93,0,0,1,3.28.35,9.41,9.41,0,0,1,2.52,1.44l1.34,1c2.46,1.75,4.92,3.52,7.38,5.28a36.45,36.45,0,0,0,5.43,3.42c6.17,2.92,8.72,2.65,15.5,1.79h0C276.64,144.41,277.44,150.72,277.83,155.13Z" transform="translate(0 0)" fill="#6F6CD9"></path><path d="M228.58,123.41c-1.77,1.63,3.38,7.26,5.25,8.78s4.71,1.51,7.08.81c1.58-.46,3.26-1.35,3.69-2.95a7.94,7.94,0,0,0-.31-3.39c-.43-2.35,0-4.82-.64-7.14a11.31,11.31,0,0,0-4.15-5.83c-1.85-1.45-6.84-5.3-7.87-1.45C230.51,116.34,232.72,119.57,228.58,123.41Z" transform="translate(0 0)" fill="url(#linear-gradient-11)"></path><path d="M228.18,202.21h-21a25.45,25.45,0,0,0-1.29-2.35,2.44,2.44,0,0,0-.35-.43,7.37,7.37,0,0,1-1.85-3.48,44.2,44.2,0,0,1,1.25-28.3,6.89,6.89,0,0,1,1.49-2.44c1.08-1.15,2.3-1.71,3.45-3.83,2.27-4.17,6.6-11.28,8.74-15.51.85,8.21-2.34,15.82-2,24.06.17,4.8.35,9.68,2,14.2a27.4,27.4,0,0,0,6.34,9.93C226,195.25,227.63,199.18,228.18,202.21Z" transform="translate(0 0)" fill="url(#linear-gradient-12)"></path><path d="M275.81,140.07s1.77,12.91,1.7,12.17,25.25-7.64,32.48-31.61a9.23,9.23,0,0,1,2-2.09c9-6.72,10.4-9.55,7.71-7.9a7.11,7.11,0,0,1-4.76,1.21,23,23,0,0,0,2.75-2.74c1.06-1.29,3.38-2.62,3.95-4.18a1.08,1.08,0,0,0,.1-.56.8.8,0,0,0-.85-.57,2.3,2.3,0,0,0-1,.4A36.72,36.72,0,0,0,316,107c-.77.63-2.89,1.48-2.16,0,1.14-2.35,3.67-3.91,4.34-6.43a1,1,0,0,0-.06-.87c-.26-.32-.78-.22-1.16,0-1.37.62-5.5,6.29-6.51,6.16s1.09-6.06,1.17-7.2c0-.31,0-.68-.27-.83a.75.75,0,0,0-.84.23c-2.64,2.18-3,6-4.7,9a2.17,2.17,0,0,1-1.15,1.12c-1.09.32-2-.92-3.11-1.17a.91.91,0,0,0-.61,0c-.61.27-.52,1.22-.15,1.78C305.79,116.41,293.06,134.74,275.81,140.07Z" transform="translate(0 0)" fill="url(#linear-gradient-13)"></path><path d="M201.35,153.13s-5.25,42.26-1.23,49.08h8.73a131.9,131.9,0,0,1,1-40.83S209.08,154.73,201.35,153.13Z" transform="translate(0 0)" fill="url(#linear-gradient-14)"></path><rect x="76.95" y="150.68" width="102.94" height="11.25" rx="5.62" fill="#6F6CD9" opacity="0.32" style="isolation: isolate;"></rect><rect x="76.95" y="173.71" width="102.94" height="11.25" rx="5.62" fill="#6F6CD9" opacity="0.32" style="isolation: isolate;"></rect><path d="M519,275.59h-91.7a5.63,5.63,0,0,1-5.63-5.62h0a5.62,5.62,0,0,1,5.62-5.62H519a5.62,5.62,0,0,1,5.62,5.62h0A5.62,5.62,0,0,1,519,275.59Z" transform="translate(0 0)" fill="#6F6CD9" opacity="0.32" style="isolation: isolate;"></path><path d="M519,298.62h-91.7a5.63,5.63,0,0,1-5.63-5.62h0a5.61,5.61,0,0,1,5.63-5.59H519a5.62,5.62,0,0,1,5.62,5.62h0A5.63,5.63,0,0,1,519,298.62Z" transform="translate(0 0)" fill="#6F6CD9" opacity="0.32" style="isolation: isolate;"></path><path d="M260.77,407.5H169.08a5.63,5.63,0,0,1-5.63-5.62h0a5.63,5.63,0,0,1,5.63-5.63h91.69a5.62,5.62,0,0,1,5.62,5.62h0a5.62,5.62,0,0,1-5.61,5.63Z" transform="translate(0 0)" fill="#6F6CD9" opacity="0.32" style="isolation: isolate;"></path><rect x="163.46" y="421.95" width="102.94" height="11.25" rx="5.62" fill="#6F6CD9" opacity="0.32" style="isolation: isolate;"></rect><path d="M421.35,256.26a12,12,0,0,1-3.29,4.92c-2.79,2.55-6.33,4.15-9.08,6.74-6.1,5.74-7.11,14.91-7.75,23.26L399,320H357a40.86,40.86,0,0,0-8.95,1q.81-11.6,1.4-23.2c.74-14.53.77-30.51-8.49-41.74a6.57,6.57,0,0,1-1.9-3.39c-.12-1.49.89-2.81,1.84-4,.06-.06.1-.12.16-.19l6.18-7.55a4.45,4.45,0,0,1,2.82-2,4,4,0,0,1,2.67,1.26,50.94,50.94,0,0,1,6.48,7.13c1.27,1.6,2.51,3.22,3.83,4.78,6.23,7.36,15.74,12.54,24.72,6.64A176.68,176.68,0,0,1,407,247.41a96.56,96.56,0,0,1,9.51-4c-.19,1.55.64,2.81,1.67,4a20.51,20.51,0,0,1,2.9,3.73A6.69,6.69,0,0,1,421.35,256.26Z" transform="translate(0 0)" fill="#6F6CD9"></path><path d="M348.11,248.15a16.53,16.53,0,0,0,1.8-11.32,48.5,48.5,0,0,0-3.66-11.08l-10.54-25a32.53,32.53,0,0,1-2.19-6.36c-.73-3.74-.14-7.6.45-11.36a2.72,2.72,0,0,0-2,.2,5.09,5.09,0,0,1-2.74,5,27.76,27.76,0,0,0-5-10.34q.39,4.19.58,8.4-3.3-3.39-6.62-6.76c-1.71,3,4.44,6.19,3,9.35l-7.26-5.23c-.53,3.56,5.23,5.24,5.54,8.84l-5.21-2.43c1.1,2.69,3.65,4.44,5.67,6.54,7.42,7.81,7.42,19.9,12.06,29.61,2.66,5.59,5.51,10.16,6.71,16.27C339.6,247.07,343.55,255.48,348.11,248.15Z" transform="translate(0 0)" fill="url(#linear-gradient-15)"></path><circle cx="190.72" cy="296.3" r="7.87" fill="#6F6CD9"></circle><circle cx="214.91" cy="296.3" r="7.87" fill="#6F6CD9"></circle><circle cx="239.1" cy="296.3" r="7.87" fill="#6F6CD9"></circle><circle cx="384.24" cy="429.82" r="7.87" fill="#6F6CD9"></circle><circle cx="408.42" cy="429.82" r="7.87" fill="#6F6CD9"></circle><circle cx="432.6" cy="429.82" r="7.87" fill="#6F6CD9"></circle><circle cx="352.18" cy="161.92" r="7.87" fill="#6F6CD9"></circle><circle cx="376.37" cy="161.92" r="7.87" fill="#6F6CD9"></circle><circle cx="400.55" cy="161.92" r="7.87" fill="#6F6CD9"></circle><path d="M258.84,111.79c-1.08,3.76-2.86,7.46-5.87,10a13.55,13.55,0,0,1-22.17-11.71c0-.31,0-.69-.22-.87a1.11,1.11,0,0,0-.72,0c-1.47.15-2.56-1.37-3-2.77a6.16,6.16,0,0,1-.29-3.32,3.19,3.19,0,0,1,2.13-2.39,2.18,2.18,0,0,1,2.66,1.43,13.6,13.6,0,0,1,2-5.86,22.13,22.13,0,0,1,4.48-6.2,14.15,14.15,0,0,1,14.47-2.28,16.12,16.12,0,0,1,9.11,9.72c.58,2-.27,3.73-.66,5.68C260.11,106,259.66,109,258.84,111.79Z" transform="translate(0 0)" fill="url(#linear-gradient-16)"></path><path d="M232.06,104.05a.7.7,0,0,1-.51.28c-.39,0-.49-.54-.52-.92a3.59,3.59,0,0,0-1-2.52,1.73,1.73,0,0,0-2.45,0h0a18.62,18.62,0,0,1,2.64-12.65,2.62,2.62,0,0,0,.55-1.25c0-.59-.34-1.17-.23-1.75a2.12,2.12,0,0,1,.73-1.06A10.46,10.46,0,0,1,235,81.7a4.59,4.59,0,0,1,4.25.48,21.14,21.14,0,0,1,10.51-2.93,16.91,16.91,0,0,1,6.3,1.07,15.77,15.77,0,0,1,8.23,7.87A20.76,20.76,0,0,1,266,99.56,13.6,13.6,0,0,1,248.11,93a8.25,8.25,0,0,0,.49,4.66,8.74,8.74,0,0,1-4.72-6.25c-.75-.7-1.89.19-2.51,1-1.6,2.11-3.08,4.59-5,6.4A15.29,15.29,0,0,0,234,101C233.23,101.94,232.91,103.15,232.06,104.05Z" transform="translate(0 0)" fill="#3f3d56"></path><path d="M386.4,259.15c-.35,2.79-2.95,5.19-5.78,5.87a6.28,6.28,0,0,1-2.2.18c-4-.41-5.82-5.35-5.74-9.38s1-8.14-.84-11.57c0-.11-.11-.22-.17-.33-1-1.77-2.75-3.09-3.64-4.94a11.35,11.35,0,0,1-.52-6.57c1.19-8.36,7.74-30.45,20.36-22.18,3.27,2.14,5.22,5.84,6.34,9.58C398.17,233,389.71,232.77,386.4,259.15Z" transform="translate(0 0)" fill="url(#linear-gradient-17)"></path><path d="M382.87,212.93c1.69,1,2.53,3,2.91,5,1.09,5.55-.68,11.21-1.67,16.78s-1,12,2.91,16.1l.09.1a8,8,0,0,0,11.31.1,7.85,7.85,0,0,0,1.77-2.6c.19-.43.41-.85.64-1.26,1.52-2.69,3.64-5,5.15-7.7a23.79,23.79,0,0,0,2.52-7.27,19.32,19.32,0,0,0,.05-7.87c-1-4.36-4-8-7.14-11.11s-6.33-5.73-10.3-7.11-8.71-1.16-12,1.43c-1,.8-3.75,4-2.32,5.4C378,214,381.1,211.85,382.87,212.93Z" transform="translate(0 0)" fill="#3f3d56"></path><polygon points="202.38 153.13 197.81 150.68 201.12 155.19 201.34 153.13 202.38 153.13" fill="url(#linear-gradient-18)"></polygon><path d="M250.52,156.3a4.57,4.57,0,0,1,4.78-4c4.48-.13,21.86-2.42,21.86-2.42l.67,5.28S262.46,161.66,250.52,156.3Z" transform="translate(0 0)" fill="url(#linear-gradient-19)"></path><path d="M275.81,140.07v2.34S260.62,146.5,244.59,130l-1-2.83a9.41,9.41,0,0,1,2.52,1.44l1.34,1,7.38,5.28a36.45,36.45,0,0,0,5.43,3.42c6.17,2.92,8.72,2.65,15.5,1.79Z" transform="translate(0 0)" fill="#fff" opacity="0.18" style="isolation: isolate;"></path><path d="M229.41,127.18s-15.79-.77-23.29,17.23c-1.61,3.84-5.57,7.76-5.57,7.76l-2.08-.44c-.24-.36-.46-.7-.64-1,1.09-5,5.9-7.45,8.14-12a28.11,28.11,0,0,1,6.93-9.11,21.66,21.66,0,0,1,3-2.12c3.84-2.23,8.27-3.12,12.69-3.79Z" transform="translate(0 0)" fill="#fff" opacity="0.18" style="isolation: isolate;"></path><path d="M421.35,256.26a12,12,0,0,1-3.29,4.92c-2.79,2.55-6.33,4.15-9.08,6.74-6.1,5.74-7.11,14.91-7.75,23.26L399,320H367.27s17.29-35.12,22-44.42,19.11-15.42,19.11-15.42C419.6,251.46,421.35,256.26,421.35,256.26Z" transform="translate(0 0)" fill="url(#linear-gradient-20)"></path><path d="M381.12,264.53a2.32,2.32,0,0,1-.5.49,6.28,6.28,0,0,1-2.2.18c-4-.41-5.82-5.35-5.74-9.38s1.57-7.92-1.77-13c1.75,1.27,4.07,2.06,9.15,2.39C383.73,245.41,381.53,264,381.12,264.53Z" transform="translate(0 0)" fill="url(#linear-gradient-21)"></path></svg>