<svg id="Layer_1" data-name="Layer 1" xmlns="http://www.w3.org/2000/svg" xmlns:xlink="http://www.w3.org/1999/xlink" viewBox="0 0 339.19 295.78" width="406" height="306" class="illustration styles_illustrationTablet__1DWOa"><defs><linearGradient id="linear-gradient" x1="279.73" y1="155.05" x2="335.81" y2="178.93" gradientTransform="translate(13.43 -22.29) rotate(4.52)" gradientUnits="userSpaceOnUse"><stop offset="0.01"></stop><stop offset="0.08" stop-opacity="0.69"></stop><stop offset="0.21" stop-opacity="0.32"></stop><stop offset="1" stop-opacity="0"></stop></linearGradient><linearGradient id="linear-gradient-2" x1="261.81" y1="162.17" x2="258.05" y2="193.97" gradientTransform="matrix(1, 0, 0, 1, 0, 0)" xlink:href="#linear-gradient"></linearGradient></defs><title>5</title><path d="M221.48,21.09a94.57,94.57,0,0,0-12.61,3.17C181.52,33.18,129.56,47,109.29,67.35,85.79,91,93,122.12,69.4,145.63c-19.55,19.45-35.86,38.49-35.81,68,.08,52,45,70.07,87,83.17,49.76,15.5,102.68,22.63,154.57,15.55,22-3,44.21-8.77,62.16-21.82,26.85-19.5,39.76-55.3,34.18-87.68-2.83-16.43-7.78-31.28-9.13-48.16-1.76-22,1.95-44.58-4.51-66.09-11.25-37.47-50.62-60-89.14-66.82C253.14,19,237,18.27,221.48,21.09Z" transform="translate(-33.59 -19.31)" fill="#6F6CD9" opacity="0.18" style="isolation: isolate;"></path><path d="M345.09,59.09v195.2a12.34,12.34,0,0,1-12.34,12.34H73.62a12.34,12.34,0,0,1-12.34-12.34V62.74A12.34,12.34,0,0,1,73.62,50.4H336.4A8.69,8.69,0,0,1,345.09,59.09Z" transform="translate(-33.59 -19.31)" fill="#fff"></path><rect x="73.37" y="73.44" width="123.87" height="76.13" fill="#d7d9e1" opacity="0.33"></rect><rect x="73.37" y="156.87" width="123.87" height="76.13" fill="#d7d9e1" opacity="0.33"></rect><path d="M345.09,59.28v.32H61.28v-.32A12.34,12.34,0,0,1,73.62,46.94H332.75A12.33,12.33,0,0,1,345.09,59.28Z" transform="translate(-33.59 -19.31)" fill="#6F6CD9"></path><path d="M99.57,59.6v207H73.62a12.34,12.34,0,0,1-12.34-12.34V59.6Z" transform="translate(-33.59 -19.31)" fill="#d7d9e1"></path><rect x="40.08" y="92.42" width="19.99" height="1.98" fill="#fff"></rect><rect x="35.44" y="86.57" width="24.64" height="2.51" fill="#fff"></rect><rect x="40.08" y="115.82" width="19.99" height="1.98" fill="#fff"></rect><rect x="35.44" y="109.96" width="24.64" height="2.51" fill="#fff"></rect><rect x="40.08" y="139.21" width="19.99" height="1.98" fill="#fff"></rect><rect x="35.44" y="133.36" width="24.64" height="2.51" fill="#fff"></rect><rect x="40.08" y="162.6" width="19.99" height="1.98" fill="#fff"></rect><rect x="35.44" y="156.75" width="24.64" height="2.51" fill="#fff"></rect><path d="M361.85,82.67V124a11.16,11.16,0,0,1-10.63,11.15,4.61,4.61,0,0,1-.53,0H282.34l-5.88,13.66-6.2-13.66H176.12a11.17,11.17,0,0,1-10.72-8.06A11,11,0,0,1,165,124V82.67A11.17,11.17,0,0,1,176.12,71.5H350.69A11.16,11.16,0,0,1,361.85,82.67Z" transform="translate(-33.59 -19.31)" fill="#6F6CD9"></path><path d="M361.85,86.85V124a11.16,11.16,0,0,1-10.63,11.15,4.61,4.61,0,0,1-.53,0H282.34l-5.88,13.66-6.2-13.66H176.12a11.17,11.17,0,0,1-10.72-8.06A11,11,0,0,1,165,124V86.85Z" transform="translate(-33.59 -19.31)" fill="#fff" opacity="0.33"></path><circle cx="40.9" cy="33.94" r="2.82" fill="#fff"></circle><circle cx="50.57" cy="33.94" r="2.82" fill="#fff"></circle><circle cx="60.24" cy="33.94" r="2.82" fill="#fff"></circle><path d="M299.13,254.39a40.42,40.42,0,1,1-80.84,0q0-1.56.12-3.09a40.42,40.42,0,0,1,80.72,3.09Z" transform="translate(-33.59 -19.31)" fill="#6F6CD9"></path><path d="M241.72,272.75c-1.34,5.84.3,12.07-.9,17.89a40.54,40.54,0,0,1-20.11-22.44,24.86,24.86,0,0,1,.15-6c.27-2.15.67-4.38.06-6.46a15,15,0,0,0-2.51-4.41,40.35,40.35,0,0,1,16.88-29.85,2.27,2.27,0,0,1,0,.82L233.6,230a23.33,23.33,0,0,1,0,6.88,7.91,7.91,0,0,1-3.75,5.52,18.21,18.21,0,0,0-2.17,1.07,6.9,6.9,0,0,0-1.65,2,16.3,16.3,0,0,0-2.46,5.15,5.75,5.75,0,0,0,1.28,5.33l11.27-2.19c1.18-.23,2.61-.39,3.42.5,1,1.06.36,2.75.57,4.18.27,1.82,1.89,3.13,2.64,4.82C244.05,266.19,242.46,269.56,241.72,272.75Z" transform="translate(-33.59 -19.31)" fill="#020202" opacity="0.14"></path><path d="M226.76,233.63a6.6,6.6,0,0,0,2.4,2.77,28.65,28.65,0,0,0,16.34,5.72c-1.91.47-3.93,1-5.29,2.43s-1.65,4-.07,5.21a4.49,4.49,0,0,0,1.85.71,16.63,16.63,0,0,0,9-.73c1.74-.65,3.45-1.61,5.31-1.59a11.42,11.42,0,0,1,4.27,1.22c2,.82,4.09,1.56,6.17,1.14s4-2.42,3.53-4.5c-.11-.49-.32-1-.08-1.45A1.55,1.55,0,0,1,271,244l19.13-8.51c1.21-.55,2.6-1.32,2.73-2.64s-1.21-2.45-2.45-3.09c-6.59-3.44-14.28-3.88-21.71-4.24l-13.19-.65c-6.38-.31-12.82-.62-19.19.13-2.21.26-6.11.29-7.8,1.94C227.05,228.34,226.08,231.82,226.76,233.63Z" transform="translate(-33.59 -19.31)" fill="#020202" opacity="0.4"></path><path d="M299.13,254.39a40.34,40.34,0,0,1-15.4,31.75,5,5,0,0,1-1.4-1.4c-1.21-1.83-.81-4.72,1.14-5.75-.68.36-3.35-.52-4.15-.64l-4.16-.65c-2-.31-5.46-.18-6.63-2.18a5.78,5.78,0,0,0-.47-.8,2.86,2.86,0,0,0-.86-.59c-1.25-.61-2.72-1.3-3-2.66-.21-1,.29-2.14-.22-3-.16-.28-.41-.5-.57-.77a2.58,2.58,0,0,1,.28-2.53c1.75-3.07,5.39-4.55,8.87-5.14s7.09-.51,10.49-1.49c2.14-.62,4.17-1.66,6.38-2,1.22-.17,2.74-.29,3.19-1.44.25-.65,0-1.4.26-2.06.1-.28.29-.52.39-.8a1.66,1.66,0,0,0-1.4-2.17c.28-.76.52-1.73-.08-2.27a1.62,1.62,0,0,0-1.47-.23c-1.45.37-2.5,1.59-3.72,2.45-4,2.87-9.56,1.85-12.94-1.52a3.63,3.63,0,0,1-1.12-1.82,2.91,2.91,0,0,1,1.71-2.9,8.45,8.45,0,0,1,3.5-.69l-1.35-8.8c-6.72,1.8-9.45-4.6-10.41-9.92s2.82-7.22,7.69-7.57A40.43,40.43,0,0,1,299.13,254.39Z" transform="translate(-33.59 -19.31)" fill="#020202" opacity="0.14"></path><rect x="273.53" y="163.77" width="3.06" height="8.34" rx="1.06" transform="translate(-45.97 2.9) rotate(-4.52)" fill="#6F6CD9"></rect><path d="M268.63,161.28l.43,2.39c.14.77.7,1.28,1.3,1.18,2.32-.4,8-1.19,12.09-.15a43.05,43.05,0,0,1,6.5,2.22c.83.37,1.66-.56,1.52-1.7L289,152.5c-.14-1.12-1.12-1.68-1.83-1-2.93,2.66-9.72,7.95-17.33,7.92C269,159.39,268.46,160.31,268.63,161.28Z" transform="translate(-33.59 -19.31)" fill="#6F6CD9"></path><ellipse cx="288.95" cy="158.97" rx="3.84" ry="8.03" transform="translate(-45.22 3.97) rotate(-4.52)" fill="#6F6CD9"></ellipse><ellipse cx="288.95" cy="158.97" rx="3.84" ry="8.03" transform="translate(-45.22 3.97) rotate(-4.52)" fill="url(#linear-gradient)"></ellipse><path d="M243.81,176.13c-4.72.67-16,27.18-12.64,33.25s21.91,13.15,21.91,13.15l-1-10.45s-12.69-5.4-11.68-8.77,8.31-15.95,8.31-15.95Z" transform="translate(-33.59 -19.31)" fill="#6F6CD9"></path><path d="M274,175.41c0-.66,4.39,1.19,4.59,1.3a47.85,47.85,0,0,1,7.14,4.83c2,1.6,4.09,3.16,6,4.93,1.73,1.64,4.07,3.66,3.65,6.32-.33,2-2.5,3.32-4.54,3.33a11.75,11.75,0,0,1-5.71-2c-3.56-2.05-6.93-4.26-10.39-6.51Z" transform="translate(-33.59 -19.31)" fill="#6F6CD9"></path><path d="M246.72,175.36h25.92a6.76,6.76,0,0,1,6.9,6.85s-4.94,20.18-5,26.95c0,3.71,1.17,14.79,1.17,14.79h-32s1.48-11.58,1.45-15.47c-.06-6.6-5.29-26.27-5.29-26.27A6.76,6.76,0,0,1,246.72,175.36Z" transform="translate(-33.59 -19.31)" fill="#6F6CD9"></path><path d="M278.16,163.91a4.4,4.4,0,0,0-1.72-1.43,3.54,3.54,0,0,0-2,0,6.2,6.2,0,0,0-4.13,3.26,2.43,2.43,0,0,0-.27,1.08,3.21,3.21,0,0,0,.29,1.08c.62,1.57,1.44,3.33,3.07,3.79a24.85,24.85,0,0,0,2.6.19c.57.09,1.11.31,1.68.41,1.44.26,4.33-.72,4.44-2.53.05-.89-1.09-2.08-1.57-2.77C279.77,165.92,279,164.9,278.16,163.91Z" transform="translate(-33.59 -19.31)" fill="#fca89e"></path><path d="M263.67,179.15a3,3,0,0,1-3.22,2.57c-3.18-.15-3.41-2.57-3.41-2.57V166.53h6.63Z" transform="translate(-33.59 -19.31)" fill="#fca89e"></path><path d="M257,172.77s4.15,6.47,6.63,3.36v-5.06Z" transform="translate(-33.59 -19.31)" fill="url(#linear-gradient-2)"></path><path d="M254.25,169.55c1.66,5.15,9.91,5.3,12.68,1.21a11.25,11.25,0,0,0,1.3-8.27,28.42,28.42,0,0,0-2.52-8c-.85-1.59-1.71-3-3.64-3.24a11.52,11.52,0,0,0-6.33,1.42,9,9,0,0,0-4.34,10.54,17.91,17.91,0,0,0,1.25,2.88A24.66,24.66,0,0,1,254.25,169.55Z" transform="translate(-33.59 -19.31)" fill="#fca89e"></path><rect x="204.39" y="181.51" width="43.42" height="25.89" fill="#6F6CD9"></rect><g opacity="0.1"><rect x="204.39" y="181.51" width="43.42" height="25.89" fill="#020202"></rect></g><path d="M256.78,240.52a11,11,0,0,1-3,1.68c-2.33,1-6.93,2.8-6.24,4.8.93,2.7,4.17,2.5,6.32,1.86a41.56,41.56,0,0,0,9.51-4.69Z" transform="translate(-33.59 -19.31)" fill="#473f47"></path><path d="M262.35,233.48c7.88-5.75,12-10,20.85-15.38,2.11-1.28,3.55-1.66,7.2-.23,3.11,1.22,2.78,6.57,1.08,8.8-5.09,6.69-24.71,15.93-28.68,17.33-1.7.6-7.75-4.49-5.3-6.92A46.3,46.3,0,0,1,262.35,233.48Z" transform="translate(-33.59 -19.31)" fill="#473f47"></path><path d="M258.71,244.56a26.71,26.71,0,0,0,4.16,4.27c2.67,2.07,4.52,2.75,6.69,1.74,3.14-1.46.25-4.55-2.19-7a34.26,34.26,0,0,0-6.21-5.12Z" transform="translate(-33.59 -19.31)" fill="#473f47"></path><path d="M259.11,237l3.37,2.79a7.94,7.94,0,0,1,1.76,2c1.09,2-2.69,6.21-5.15,3.76s-4.66-5.07-4.66-5.07Z" transform="translate(-33.59 -19.31)" fill="#fca89e"></path><path d="M249.09,241.39c-9.16-4.61-14.78-6.27-20.67-14.56-1.5-2.12-2.1-5.61-1.52-7.34.72-2.12,3.82-3.4,7.48-2.53,3.06.74,23.64,16.86,26.86,19.9,1.38,1.31-2.84,7.86-6.3,6.73A34.66,34.66,0,0,1,249.09,241.39Z" transform="translate(-33.59 -19.31)" fill="#473f47"></path><path d="M267.93,154a6.9,6.9,0,0,1-1.54,2.28,8.8,8.8,0,0,1-4.92,2.39c-2.7.43-5.44,0-8.16-.27a2.36,2.36,0,0,1-1.61,1.92,40.23,40.23,0,0,0,1.64,5.59c.67,1.78,1.63,3.44,2.35,5.18-2.24-1.55-4-4.19-5.6-6.33a12.28,12.28,0,0,1-2.06-3.41,4.2,4.2,0,0,1,.37-3.83,4.53,4.53,0,0,0,.9-1.3,3.61,3.61,0,0,0,0-1.27,6.65,6.65,0,0,1,2.32-5.28,13.45,13.45,0,0,1,5.27-2.71,11.39,11.39,0,0,1,5.17-.56c2.52.43,5.54,3.21,6.07,5.72A3.38,3.38,0,0,1,267.93,154Z" transform="translate(-33.59 -19.31)" fill="#473f47"></path><path d="M252.47,166.17a2.24,2.24,0,0,0-1.45.93,1.59,1.59,0,0,0-.07,1.23,3.54,3.54,0,0,0,.63,1.1,2.06,2.06,0,0,0,.51.51,2.2,2.2,0,0,0,1.1.28c.3,0,.6,0,.9,0a1.11,1.11,0,0,0,.44-.12.86.86,0,0,0,.3-.42,3.1,3.1,0,0,0,0-1.93,3.63,3.63,0,0,0-.83-1.59C253.61,165.79,253,166,252.47,166.17Z" transform="translate(-33.59 -19.31)" fill="#fca89e"></path><path d="M285.92,191.18a9.85,9.85,0,0,0,2.58,3.58,5,5,0,0,0,7.94-4.72,10,10,0,0,0-1.89-3.95q-5.88-8.7-12.09-17.2c-1.1.63-5,2.06-5.27,3.31s2.08,5,2.66,6.28c1,2.16,2,4.32,3,6.46S285.28,189.06,285.92,191.18Z" transform="translate(-33.59 -19.31)" fill="#6F6CD9"></path><rect x="272.91" y="169.34" width="3.48" height="3.48" rx="1.07" transform="translate(-73.55 76.14) rotate(-18.4)" fill="#6F6CD9"></rect><line x1="138.27" y1="58.62" x2="142.97" y2="63.31" fill="none" stroke="#fff" stroke-linecap="round" stroke-miterlimit="10" stroke-width="2"></line><line x1="143.25" y1="58.62" x2="138.55" y2="63.31" fill="none" stroke="#fff" stroke-linecap="round" stroke-miterlimit="10" stroke-width="2"></line><rect x="149.96" y="81.61" width="109.29" height="4.96" rx="2.48" fill="#fff"></rect><rect x="149.96" y="93.98" width="109.29" height="4.96" rx="2.48" fill="#fff"></rect></svg>