<svg xmlns="http://www.w3.org/2000/svg" viewBox="0 0 400 300" width="406" height="306" class="illustration styles_illustrationTablet__1DWOa"><g id="_576_brainstorming_session_outline" data-name="#576_brainstorming_session_outline"><rect x="146.95" y="201.77" width="111.33" height="8.36" rx="4.18" fill="#f56132"></rect><path d="M254.1,211.12h-103a5.18,5.18,0,1,1,0-10.35h103a5.18,5.18,0,1,1,0,10.35Zm-103-8.35a3.18,3.18,0,1,0,0,6.35h103a3.18,3.18,0,1,0,0-6.35Z" fill="#093f68"></path><rect x="163.61" y="210.12" width="80.09" height="15.02" fill="#f56132"></rect><path d="M243.7,226.15H163.61a1,1,0,0,1-1-1v-15a1,1,0,0,1,1-1H243.7a1,1,0,0,1,1,1v15A1,1,0,0,1,243.7,226.15Zm-79.09-2H242.7v-13H164.61Z" fill="#093f68"></path><path d="M121.05,191.19l18-13.73,6.09,6.24s-13.88,17.62-18.64,18.07S120,195.56,121.05,191.19Z" fill="#68e1fd"></path><path d="M126,202.79a5.17,5.17,0,0,1-4-1.88c-2.2-2.53-2.63-6.92-1.92-9.95a1,1,0,0,1,.36-.57l17.95-13.72a1,1,0,0,1,1.33.09L145.8,183a1,1,0,0,1,.07,1.31c-1.44,1.84-14.28,18-19.33,18.45A4.89,4.89,0,0,1,126,202.79Zm-4-11c-.56,2.83.09,6.15,1.56,7.84a3.19,3.19,0,0,0,2.85,1.17c3-.29,12-10.3,17.4-17l-4.86-5Z" fill="#093f68"></path><path d="M108.64,163.82h7.42a0,0,0,0,1,0,0v4.66a3.27,3.27,0,0,1-3.27,3.27h-.89a3.27,3.27,0,0,1-3.27-3.27v-4.66A0,0,0,0,1,108.64,163.82Z" transform="translate(11.29 -7.03) rotate(3.78)" fill="#ffc9b0"></path><path d="M112.75,172.78h-.29l-.88-.06a4.27,4.27,0,0,1-4-4.54l.31-4.65a1,1,0,0,1,1.06-.93l7.4.49a1,1,0,0,1,.93,1.06l-.3,4.65a4.28,4.28,0,0,1-4.25,4Zm-2.91-8.13-.24,3.65a2.26,2.26,0,0,0,2.11,2.41l.88.06h0a2.26,2.26,0,0,0,2.41-2.11l.24-3.65Z" fill="#093f68"></path><path d="M123.17,127.38a3.28,3.28,0,0,1,1.85-.65c1.19-.1,2.58-.17,3.25-1.16a2.93,2.93,0,0,0-.26-3,7.34,7.34,0,0,0-5.3-3.52,6.35,6.35,0,0,0,2.21-1.05,2.2,2.2,0,0,0,.81-2.18,2.82,2.82,0,0,0-1.53-1.54,11,11,0,0,0-9.13-.48,6.47,6.47,0,0,0,1.89-2.31,2.2,2.2,0,0,0-.7-2.67,2.93,2.93,0,0,0-2.54.15,14.91,14.91,0,0,0-7.74,7.42c-8.25-.2-14.39,4.42-19.07,10.71-4.22,5.68-3.29,12.73-1.31,19.1a33,33,0,0,0,10.33,15s12.21-.29,17.46-8.53c2.86-4.49,4.64-9.7,6.25-14.74.73-2.27,1.41-4.57,2-6.87C122.08,129.49,122.22,128.15,123.17,127.38Z" fill="#725858"></path><path d="M95.93,162.14a1,1,0,0,1-.6-.2,33.74,33.74,0,0,1-10.69-15.48C83,141,81.26,133,86.11,126.46c5.46-7.34,11.93-11.08,19.25-11.12a16,16,0,0,1,8-7.34,4,4,0,0,1,3.42-.09,3.17,3.17,0,0,1,1.13,3.91l-.1.24a11.92,11.92,0,0,1,6.88,1.3,3.73,3.73,0,0,1,2,2.13,3.18,3.18,0,0,1-1.12,3.23l-.14.11a8.36,8.36,0,0,1,3.45,3.19,3.85,3.85,0,0,1,.22,4.11c-.91,1.33-2.52,1.47-3.81,1.58l-.18,0a2.33,2.33,0,0,0-1.31.43h0a4.11,4.11,0,0,0-.94,2.21c-.07.28-.14.58-.22.89-.65,2.39-1.34,4.72-2,6.92-1.63,5.07-3.47,10.41-6.37,15-5.47,8.59-17.75,9-18.27,9Zm9.54-44.8c-6.79,0-12.6,3.38-17.75,10.32-3.28,4.4-3.65,10.19-1.17,18.21a32.43,32.43,0,0,0,9.71,14.25c2-.13,11.88-1.12,16.29-8,2.77-4.36,4.49-9.36,6.14-14.52.7-2.16,1.38-4.46,2-6.83.08-.28.14-.56.21-.83a5.6,5.6,0,0,1,1.62-3.3h0a4.24,4.24,0,0,1,2.4-.86l.18,0c1-.08,1.95-.17,2.32-.71s.06-1.38-.29-2a6.34,6.34,0,0,0-4.57-3,1,1,0,0,1-.86-.9,1,1,0,0,1,.68-1,5.58,5.58,0,0,0,1.87-.88,1.2,1.2,0,0,0,.5-1.13c-.09-.31-.43-.61-1-.94a10,10,0,0,0-8.29-.43,1,1,0,0,1-1-1.68,5.79,5.79,0,0,0,1.63-1.92,1.25,1.25,0,0,0-.27-1.45,2.08,2.08,0,0,0-1.65.21,13.86,13.86,0,0,0-7.22,6.92,1.06,1.06,0,0,1-.93.58Z" fill="#093f68"></path><path d="M112.82,167.26c-4.61.93-9.32-.76-13.12-3.32-2-1.33-5.07-2.81-4.71-5.61a7.28,7.28,0,0,1,1.49-3.27c2.18-3,3.21-6,4.7-9.27,1.78-3.95,3.52,1.05,4.11,2.54a1.32,1.32,0,0,0,.39.63,1.25,1.25,0,0,0,.69.18,5.41,5.41,0,0,0,2-.3.89.89,0,0,0,.5-.34,1,1,0,0,0,0-.67c-.74-3.62-1.94-7.23-1.62-10.92.5-5.77,4.87-5,9.18-6.63.56-.21,6.45-2.46,6.27-3.46l3.7,18.48C128.49,155.51,123.2,165.19,112.82,167.26Z" fill="#ffc9b0"></path><path d="M110.23,168.51a20.07,20.07,0,0,1-11.08-3.74l-.86-.55c-2-1.25-4.69-3-4.3-6a8.45,8.45,0,0,1,1.68-3.73,35.15,35.15,0,0,0,3.7-7c.29-.68.58-1.36.9-2.06.23-.53.94-2.08,2.38-2.08,1.65,0,2.62,2.2,3.47,4.41l.1.26a1,1,0,0,0,.07.16h.12a4.06,4.06,0,0,0,1.51-.2c-.16-.78-.34-1.55-.52-2.33a27.53,27.53,0,0,1-1.09-8.78c.44-5.07,3.67-5.86,6.81-6.62a23.43,23.43,0,0,0,3-.86c3.5-1.34,5.23-2.32,5.65-2.73a1,1,0,0,1,2,0l3.7,18.48c2.25,11.29-3.81,21-14.41,23.14h0A13.61,13.61,0,0,1,110.23,168.51Zm-7.61-23.17a2.71,2.71,0,0,0-.53.86c-.31.69-.6,1.37-.89,2a36.26,36.26,0,0,1-3.91,7.41A6.45,6.45,0,0,0,96,158.46c-.21,1.65,1.27,2.73,3.39,4.08.31.19.61.39.89.58,4.17,2.8,8.56,3.92,12.36,3.16h0c9.48-1.89,14.88-10.64,12.84-20.79l-3.33-16.68a34.93,34.93,0,0,1-5.28,2.4,26,26,0,0,1-3.26.95c-3.1.75-5,1.2-5.29,4.84a26.08,26.08,0,0,0,1,8.15c.2.83.39,1.65.56,2.48a1.88,1.88,0,0,1-.13,1.36,1.84,1.84,0,0,1-1,.79,6.57,6.57,0,0,1-2.41.36,2.12,2.12,0,0,1-1.24-.38,2.32,2.32,0,0,1-.72-1.06l-.11-.27C103.38,146.17,102.88,145.51,102.62,145.34Z" fill="#093f68"></path><circle cx="119.3" cy="141.09" r="1.75" fill="#093f68"></circle><path d="M124,141s5.92,6.8,4.8,7.33a19.72,19.72,0,0,1-4.07.89" fill="#ffc9b0"></path><path d="M124.71,150.17a1,1,0,0,1-.12-2,24.71,24.71,0,0,0,3.15-.58,43.55,43.55,0,0,0-4.51-6,1,1,0,1,1,1.5-1.31c5.51,6.34,5.25,7.6,5.16,8a1.21,1.21,0,0,1-.68.87,19.94,19.94,0,0,1-4.38,1Zm3.21-2.12h0Z" fill="#093f68"></path><path d="M102.4,143.44s-5.15-2.22-6.77,2.29,2.09,10.91,9.16,7.41" fill="#ffc9b0"></path><path d="M101,155.14a6.34,6.34,0,0,1-4.31-1.6,7.65,7.65,0,0,1-2-8.15,5,5,0,0,1,2.72-3.06,7.59,7.59,0,0,1,5.39.19,1,1,0,0,1-.8,1.84,5.6,5.6,0,0,0-3.8-.19,3,3,0,0,0-1.63,1.9,5.68,5.68,0,0,0,1.4,6c1.56,1.39,3.83,1.46,6.38.2a1,1,0,0,1,.89,1.79A9.69,9.69,0,0,1,101,155.14Z" fill="#093f68"></path><path d="M112.68,139.88a2,2,0,0,1-.25-4l7.73-1a2,2,0,1,1,.51,4l-7.74,1Z" fill="#093f68"></path><path d="M117.76,154.43a4.41,4.41,0,0,0-.64,3.23,2.16,2.16,0,0,0,.38,1.19,1.5,1.5,0,0,0,.74.47,2.54,2.54,0,0,0,2.65-1.07c.69-.95,1.43-3.79.38-4.72S118.4,153.62,117.76,154.43Z" fill="#093f68"></path><path d="M127.43,212.87l-31.12,2.27L94.11,182a13.9,13.9,0,0,1,13.19-14.54l3.32-.16a13.88,13.88,0,0,1,14.54,13.19Z" fill="#68e1fd"></path><path d="M96.31,216.14a1,1,0,0,1-1-.93L93.12,182a14.91,14.91,0,0,1,14.13-15.61l3.32-.16a14.91,14.91,0,0,1,15.59,14.14l2.26,32.41a1,1,0,0,1-.92,1.06l-31.12,2.28Zm15-47.91-.63,0-3.32.16A12.91,12.91,0,0,0,95.11,181.9l2.13,32.17,29.12-2.13-2.2-31.43A12.9,12.9,0,0,0,111.3,168.23Z" fill="#093f68"></path><path d="M161.53,225.15c-.15-5.44-.52-9.41-1.24-10.26-2.83-3.3-31.8-4.18-31.8-4.18l-30.6,6.11a17.32,17.32,0,0,0,3.48,8.33Z" fill="#093f68"></path><path d="M161.53,226.15H101.37a1,1,0,0,1-.76-.36,18,18,0,0,1-3.71-8.86,1,1,0,0,1,.79-1.09l30.6-6.11.23,0c4.91.15,29.56,1.07,32.53,4.53.6.71,1.26,2.56,1.48,10.88a1,1,0,0,1-.28.72A1,1,0,0,1,161.53,226.15Zm-59.68-2H160.5c-.25-7.27-.85-8.45-1-8.61-1.74-2-19.11-3.46-31-3.83L99,217.62A16.16,16.16,0,0,0,101.85,224.15Z" fill="#093f68"></path><path d="M152.61,191.8s7.31-.37,11.21,1.27,8,7.32,5.91,7.55-6.93-.35-8.76-.23c-1.07.07-7.13-.47-7.13-.47Z" fill="#ffc9b0"></path><path d="M168.5,201.67c-1.12,0-2.48-.08-3.81-.16a34.7,34.7,0,0,0-3.66-.12c-1.11.07-6.65-.41-7.27-.47a1,1,0,0,1-.91-.85L151.62,192a1,1,0,0,1,.21-.78,1,1,0,0,1,.73-.37c.3,0,7.59-.36,11.65,1.34,3.41,1.44,7.36,6,7,8.13a1.54,1.54,0,0,1-1.42,1.34A13,13,0,0,1,168.5,201.67Zm-6.92-2.3c.87,0,2,.07,3.23.14,1.56.09,3.3.2,4.41.14a13,13,0,0,0-5.79-5.66c-2.77-1.16-7.52-1.25-9.66-1.22l.94,6.23c2.33.19,5.55.44,6.19.39Z" fill="#093f68"></path><path d="M115.28,175.57s6.71,18.65,12.54,19.65,24.79-3.42,24.79-3.42l1.61,8.54S130.88,211.5,120.91,207s-14.51-19.2-14.51-19.2" fill="#68e1fd"></path><path d="M127,209a15.64,15.64,0,0,1-6.45-1.17c-10.26-4.69-14.87-19.2-15.06-19.81a1,1,0,0,1,1.91-.59c.05.14,4.54,14.27,14,18.58,8.49,3.88,27.85-4.51,31.76-6.29L151.82,193c-4.07.91-18.93,4.1-24.17,3.2-6.23-1.07-12.6-18.34-13.31-20.3a1,1,0,0,1,1.89-.68c2.51,7,7.93,18.35,11.76,19,5.57.95,24.2-3.37,24.39-3.41a1,1,0,0,1,.77.14,1,1,0,0,1,.44.65l1.61,8.53a1,1,0,0,1-.55,1.09C153.85,201.62,138.2,209,127,209Z" fill="#093f68"></path><path d="M139,177.46s2.75-8.41,3.87-7.92.63,4,.63,4,4.46-6.13,5.74-5.68,4,2.65,3.37,4.81-7.52,11.08-7.52,11.08Z" fill="#ffc9b0"></path><path d="M145.09,184.7a1,1,0,0,1-.72-.31l-6.08-6.23a1,1,0,0,1-.24-1c1.16-3.55,2.83-7.9,4.18-8.51a1.32,1.32,0,0,1,1.05,0,2.42,2.42,0,0,1,1.23,1.91c3.45-4.24,4.59-3.84,5.06-3.68,1.8.63,4.76,3.26,4,6-.61,2.24-6.52,9.91-7.69,11.42a1,1,0,0,1-.74.38Zm-5-7.5,4.86,5c2.63-3.44,6.28-8.5,6.64-9.81s-1.54-3.08-2.57-3.54c-.77.36-2.92,2.73-4.76,5.26a1,1,0,0,1-1.8-.73,9.35,9.35,0,0,0,.07-2.15A45,45,0,0,0,140.14,177.2Z" fill="#093f68"></path><path d="M258.21,225.15v-.08l-14-8.2s-2.72-1.37-4.86,5.07a15.64,15.64,0,0,0-.52,3.21Z" fill="#ffc9b0"></path><path d="M258.21,226.15H238.85a1,1,0,0,1-.74-.33,1,1,0,0,1-.26-.76,16.27,16.27,0,0,1,.57-3.44c1-3.07,2.35-5,4-5.62a2.86,2.86,0,0,1,2.31,0l14,8.23a1,1,0,0,1,.49,1A1.09,1.09,0,0,1,258.21,226.15Zm-18.26-2h14.71l-10.87-6.38a1.09,1.09,0,0,0-.73.11c-.57.27-1.69,1.2-2.74,4.37A11.12,11.12,0,0,0,240,224.15Z" fill="#093f68"></path><path d="M288.71,166.49s-15.92,17.34-17.38,15.73-3.28-14.35-3.28-14.35l-7.71,2.42s-3.65,24.94,7.59,27.43,25.54-15.61,25.54-15.61Z" fill="#68e1fd"></path><path d="M270.13,199a11.64,11.64,0,0,1-2.42-.26c-12-2.66-8.51-27.5-8.36-28.56a1,1,0,0,1,.69-.81l7.71-2.42a1,1,0,0,1,.83.11,1,1,0,0,1,.46.7c.78,5.5,2,11.85,2.83,13.51,2.13-1,9.65-8.38,16.1-15.41a1,1,0,0,1,1.69.38l4.77,15.62a1,1,0,0,1-.17.91C293.7,183.44,281.3,199,270.13,199Zm-8.88-27.91c-.45,3.78-2.38,23.64,6.9,25.69,9.6,2.13,22-12.24,24.21-14.85l-4.1-13.44c-4.93,5.32-14.16,14.88-16.65,14.88h0a1.36,1.36,0,0,1-1-.43c-1.38-1.53-2.77-9.82-3.36-13.73Z" fill="#093f68"></path><path d="M289.7,163.77h.92a3.38,3.38,0,0,1,3.38,3.38V172a0,0,0,0,1,0,0h-7.68a0,0,0,0,1,0,0v-4.82A3.38,3.38,0,0,1,289.7,163.77Z" transform="translate(590.73 316.26) rotate(176.22)" fill="#ffc9b0"></path><path d="M289.74,173a4.32,4.32,0,0,1-2.88-1.09,4.37,4.37,0,0,1-1.49-3l-.31-4.82A1,1,0,0,1,286,163l7.66-.51a1,1,0,0,1,.72.25,1,1,0,0,1,.34.69l.32,4.81a4.4,4.4,0,0,1-4.08,4.66L290,173h-.29Zm.23-1h0Zm-2.85-7,.25,3.81A2.38,2.38,0,0,0,289.9,171l.92-.06a2.36,2.36,0,0,0,1.63-.81,2.31,2.31,0,0,0,.58-1.72l-.25-3.82Z" fill="#093f68"></path><path d="M285.14,166.84c4.78,1,9.64-.78,13.58-3.43,2-1.38,5.25-2.91,4.88-5.81a7.6,7.6,0,0,0-1.55-3.39c-1.64-2.28-3.51-5-4.29-7.71-1-3.46.34-7.11-1.19-10.58-2.59-5.89-11-6.42-16.5-6.89a11.57,11.57,0,0,0-4.07.15c-3.36,1-3,5-3.54,7.84L271,144.11C268.93,154.69,274.4,164.7,285.14,166.84Z" fill="#ffc9b0"></path><path d="M287.82,168.1a14.32,14.32,0,0,1-2.87-.27h0a18.6,18.6,0,0,1-12.54-8.68,21.4,21.4,0,0,1-2.35-15.23l1.42-7.1c.11-.56.19-1.18.27-1.84.3-2.59.68-5.82,4-6.76a12.13,12.13,0,0,1,4.43-.18l.52,0c5.6.47,14.05,1.18,16.81,7.44a14.33,14.33,0,0,1,.87,6.26,14.73,14.73,0,0,0,.36,4.44c.71,2.51,2.44,5,4.15,7.41a8.72,8.72,0,0,1,1.72,3.84c.4,3.13-2.39,4.91-4.43,6.2-.31.19-.61.38-.88.57A20.78,20.78,0,0,1,287.82,168.1Zm-9.72-38.18a6.78,6.78,0,0,0-1.82.22c-1.88.54-2.22,2.28-2.55,5.07-.08.67-.16,1.36-.29,2l-1.42,7.1a19.44,19.44,0,0,0,2.11,13.81,16.58,16.58,0,0,0,11.21,7.74h0c4,.79,8.5-.37,12.82-3.28.29-.2.6-.39.93-.6,2.2-1.4,3.74-2.52,3.52-4.25a6.8,6.8,0,0,0-1.37-2.93,27.72,27.72,0,0,1-4.45-8,16.88,16.88,0,0,1-.43-5,12.62,12.62,0,0,0-.7-5.42c-2.28-5.17-9.72-5.8-15.15-6.25L280,130C279.36,130,278.72,129.92,278.1,129.92Z" fill="#093f68"></path><path d="M273.59,142.73s-6.12,7.05-5,7.59a20.47,20.47,0,0,0,4.22.92" fill="#ffc9b0"></path><path d="M272.84,152.24h-.12a20.88,20.88,0,0,1-4.52-1,1.24,1.24,0,0,1-.69-.88c-.09-.43-.36-1.73,5.33-8.27a1,1,0,1,1,1.51,1.31,44.34,44.34,0,0,0-4.7,6.24,25.55,25.55,0,0,0,3.31.62,1,1,0,0,1-.12,2Z" fill="#093f68"></path><path d="M295.93,142.19s5.32-2.3,7,2.37-2.17,11.29-9.49,7.67" fill="#ffc9b0"></path><path d="M297.43,154.26a10,10,0,0,1-4.42-1.13,1,1,0,1,1,.88-1.79c2.66,1.31,5,1.23,6.64-.22A5.92,5.92,0,0,0,302,144.9a3.15,3.15,0,0,0-1.72-2,5.89,5.89,0,0,0-4,.2,1,1,0,0,1-.79-1.84,7.89,7.89,0,0,1,5.55-.2,5.16,5.16,0,0,1,2.8,3.15,7.89,7.89,0,0,1-2,8.4A6.51,6.51,0,0,1,297.43,154.26Z" fill="#093f68"></path><path d="M285.29,139.47H285l-8-1a2,2,0,0,1,.5-4l8,1a2,2,0,0,1-.25,4Z" fill="#093f68"></path><circle cx="278.33" cy="141.62" r="1.9" fill="#093f68"></circle><path d="M278.3,160.4a1.67,1.67,0,0,0,1.29.54c2.14-.28,2.13-4.67.23-5.39C276.46,154.3,276.59,158.73,278.3,160.4Z" fill="#093f68"></path><path d="M274.55,214.52l32.2,2.35L309,182.53a14.35,14.35,0,0,0-13.65-15.05l-3.43-.17A14.37,14.37,0,0,0,276.89,181Z" fill="#68e1fd"></path><path d="M306.75,217.87h-.07l-32.21-2.36a1,1,0,0,1-.92-1.06l2.34-33.56A15.38,15.38,0,0,1,292,166.31l3.43.17A15.38,15.38,0,0,1,310,182.57l-2.27,34.37a1,1,0,0,1-.34.69A1,1,0,0,1,306.75,217.87Zm-31.14-4.28,30.21,2.21,2.2-33.34a13.38,13.38,0,0,0-12.7-14l-3.43-.17a13.37,13.37,0,0,0-14,12.7Z" fill="#093f68"></path><path d="M303,225.15a18.87,18.87,0,0,0,2.16-6.53l-31.66-6.33s-30,.91-32.91,4.33c0,0,4.78,4.47,9.39,8.53Z" fill="#093f68"></path><path d="M303,226.15h-53a1,1,0,0,1-.66-.25c-4.57-4-9.37-8.51-9.42-8.55a1,1,0,0,1-.07-1.39c3.06-3.57,28.56-4.52,33.64-4.67a.82.82,0,0,1,.22,0l31.67,6.32a1,1,0,0,1,.8,1.09,20,20,0,0,1-2.29,6.92A1,1,0,0,1,303,226.15Zm-52.64-2h52a18.22,18.22,0,0,0,1.62-4.74l-30.61-6.12c-11.19.35-27.15,1.61-31.23,3.44C243.69,218.17,247,221.25,250.31,224.15Z" fill="#093f68"></path><path d="M293.36,172.14l-24.88,15.71c-2-2.84-16-18.27-16-18.27l-8.59,4.72s11.23,24.89,20.48,26.89c14.41,3.12,29-13.38,29-13.38" fill="#68e1fd"></path><path d="M268,202.57a18.54,18.54,0,0,1-3.89-.4c-9.62-2.09-20.71-26.42-21.17-27.46a1,1,0,0,1,.43-1.28L252,168.7a1,1,0,0,1,1.22.21c.53.58,12.27,13.53,15.54,17.61l24.11-15.23a1,1,0,0,1,1.07,1.7L269,188.7a1,1,0,0,1-1.34-.27c-1.77-2.45-12.87-14.75-15.44-17.6l-7.08,3.9c3.41,7.32,12.49,24,19.39,25.48,13.68,3,27.93-12.91,28.07-13.07a1,1,0,0,1,1.42-.08,1,1,0,0,1,.08,1.41,55.15,55.15,0,0,1-9.3,8C278.94,200.51,273.21,202.57,268,202.57Z" fill="#093f68"></path><path d="M252.44,169.58s-3.32-9.83-4.51-7.65a4.16,4.16,0,0,0,0,4s-9.1-3.66-10.49-2-2.65,3.37-1.87,4.85,8.28,5.45,8.28,5.45Z" fill="#ffc9b0"></path><path d="M243.85,175.3a1.12,1.12,0,0,1-.47-.11c-1.82-1-7.84-4.24-8.69-5.87-1.14-2.17.66-4.36,2-5.95s6.1-.36,9.75,1a5.08,5.08,0,0,1,.63-2.88,1.43,1.43,0,0,1,1.41-.83c.51,0,2.07.18,4.93,8.64a1,1,0,0,1-.47,1.19l-8.59,4.73A1,1,0,0,1,243.85,175.3Zm-5-10.76a1.33,1.33,0,0,0-.7.13c-1.17,1.42-2.2,2.8-1.72,3.72.4.71,4,3,7.38,4.78l7.38-4.06a34.88,34.88,0,0,0-2.68-6.05,3.14,3.14,0,0,0,.24,2.4,1,1,0,0,1-1.22,1.45C244.05,165.5,240.44,164.54,238.88,164.54Z" fill="#093f68"></path><path d="M268.05,167.87s2.84-10.05,1-9.73-3.27,4.18-3.27,4.18-3.12-8.21-6-8.11-6.61,2.22-6.7,3.93,7.26,12.15,7.26,12.15Z" fill="#ffc9b0"></path><path d="M260.34,171.29a1,1,0,0,1-.82-.43c-2.82-4-7.55-11-7.44-12.78.14-2.55,4.74-4.77,7.66-4.87,2.56-.1,4.77,3.85,6.05,6.64.7-1.2,1.73-2.47,3-2.7a1.39,1.39,0,0,1,1.29.45c1.17,1.3,0,6.45-1.12,10.54a1,1,0,0,1-.66.68l-7.71,2.42A1,1,0,0,1,260.34,171.29Zm-.51-16.08h0c-2.72.09-5.69,2.13-5.74,3,.1,1,3.46,6.32,6.67,10.91l6.49-2a37.34,37.34,0,0,0,1.43-7.68,8.81,8.81,0,0,0-2,3.26,1,1,0,0,1-.93.66h0a1,1,0,0,1-.93-.64C263.43,159.05,261.11,155.21,259.83,155.21Zm8.22,12.66h0Z" fill="#093f68"></path><path d="M290.32,119.72c3.1.27,6.25-.54,9.26.68,3.19,1.29,6.8,4.06,8,7.35a17.31,17.31,0,0,1,.72,8c-.29,2.73-.84,5.72.65,8s4.28,3.12,5.35,5.45c2.17,4.76-4.88,10.14-2.67,14.88a16.13,16.13,0,0,0,2.6,3.2,7.33,7.33,0,0,1,1.77,5.28c-.29,2.86-2.6,4-4.66,5.48a22.43,22.43,0,0,1-11.08,4c-4.63.46-11.88.8-15.79-2.15-2.18-1.64-3.46-4.71-2.36-7.21a22.89,22.89,0,0,0,1.62-3.1c.48-1.86-.65-3.71-1-5.61a6.76,6.76,0,0,1,1-4.74c.91-1.42,2.37-2.54,2.84-4.16.69-2.38-1-4.89-.63-7.34.32-2.08,2-3.61,3.27-5.3a6.07,6.07,0,0,0-.24-7.67c-1.27-1.48-3.94-1.53-5.68-1.64-1-.07-6.09-3.45-5.42-4.52-.83,1.33-2.49,1.83-4,2.22-.14,0-.35.05-.39-.09a.22.22,0,0,1,0-.14C274.61,123.36,283.77,119.16,290.32,119.72Z" fill="#725858"></path><path d="M294.82,183.34c-5,0-8.57-.88-10.91-2.65s-4-5.29-2.68-8.41a10.24,10.24,0,0,1,.78-1.39,5.74,5.74,0,0,0,.79-1.56,5.92,5.92,0,0,0-.45-3.15,14.89,14.89,0,0,1-.54-2,7.79,7.79,0,0,1,1.1-5.45,16.14,16.14,0,0,1,1.22-1.58,4.78,4.78,0,0,0,1.24-5.7,10,10,0,0,1-.39-3.83,9.69,9.69,0,0,1,2.54-4.59c.31-.38.62-.76.91-1.15a5.07,5.07,0,0,0-.19-6.43c-.9-1-3-1.18-4.57-1.27l-.42,0c-1.14-.07-4.31-2.13-5.68-3.72a10.24,10.24,0,0,1-3.42,1.4,1.24,1.24,0,0,1-1.59-.75,1.19,1.19,0,0,1,0-.6c1.24-8.1,11.24-12.29,17.89-11.71a26.83,26.83,0,0,0,3.11,0,15.22,15.22,0,0,1,6.43.73c3.05,1.24,7.14,4,8.61,7.92a17.94,17.94,0,0,1,.77,8.44l-.1.87c-.26,2.33-.54,4.73.6,6.49a10,10,0,0,0,2.31,2.21,9.35,9.35,0,0,1,3.11,3.37c1.28,2.8-.06,5.58-1.35,8.28-1.15,2.39-2.23,4.64-1.32,6.59a7.66,7.66,0,0,0,1.52,2c.32.33.64.67.94,1a8.3,8.3,0,0,1,2,6c-.29,2.87-2.31,4.27-4.1,5.51l-1,.67A23.32,23.32,0,0,1,300.4,183,54.17,54.17,0,0,1,294.82,183.34Zm-15.95-54.51a13.09,13.09,0,0,0,4.55,3.29l.37,0c1.91.12,4.52.28,6,2A7,7,0,0,1,290,143c-.31.42-.64.82-1,1.23a8.06,8.06,0,0,0-2.1,3.62,8.13,8.13,0,0,0,.36,3.06,8.54,8.54,0,0,1,.24,4.41,8.3,8.3,0,0,1-1.9,3.05,13.71,13.71,0,0,0-1.06,1.37,5.72,5.72,0,0,0-.82,4,13,13,0,0,0,.48,1.77,7.62,7.62,0,0,1,.48,4.26,7.74,7.74,0,0,1-1,2.12,8.9,8.9,0,0,0-.65,1.14c-.91,2.09.32,4.7,2.05,6,2.69,2,7.77,2.69,15.09,1.95a21.35,21.35,0,0,0,10.58-3.83l1-.71c1.71-1.18,3.06-2.11,3.25-4.07a6.25,6.25,0,0,0-1.54-4.53c-.27-.32-.56-.63-.85-.93a9.46,9.46,0,0,1-1.89-2.49c-1.3-2.8,0-5.59,1.34-8.3,1.14-2.38,2.22-4.63,1.33-6.58a7.81,7.81,0,0,0-2.52-2.62,12,12,0,0,1-2.76-2.7c-1.52-2.36-1.19-5.26-.9-7.81l.09-.85a16.06,16.06,0,0,0-.65-7.52c-1.16-3.06-4.6-5.61-7.49-6.77a13.49,13.49,0,0,0-5.62-.59,26.63,26.63,0,0,1-3.34,0h0c-5.37-.45-13.62,2.74-15.47,8.82a4.05,4.05,0,0,0,2.28-1.47h0a1,1,0,0,1,1.82.76Z" fill="#093f68"></path><path d="M231.43,179V201.6h-42V184.7s-15.82,6.74-19.15,3.26c-9.32-9.77-9.15-32.43-9.15-32.43l9.79-1.68,7.54,21.27s12.39-5.41,20.07-8.6c8.31-3.45,10.88-1.73,10.88-1.73l14.41,4.08A10.48,10.48,0,0,1,231.43,179Z" fill="#68e1fd"></path><path d="M231.43,202.6h-42a1,1,0,0,1-1-1V186.19c-4.47,1.79-15.68,5.8-18.87,2.46-9.49-10-9.44-32.18-9.43-33.12a1,1,0,0,1,.83-1l9.79-1.69a1,1,0,0,1,1.12.65l7.18,20.26c3.09-1.34,12.75-5.54,19.09-8.17,7.71-3.2,10.87-2.14,11.65-1.74l14.3,4a11.51,11.51,0,0,1,8.34,11V201.6A1,1,0,0,1,231.43,202.6Zm-41-2h40V179a9.5,9.5,0,0,0-6.89-9.11l-14.41-4.09a1,1,0,0,1-.28-.13h0s-2.48-1.27-9.94,1.83S179,176,178.86,176a1,1,0,0,1-.8,0,1,1,0,0,1-.54-.59L170.26,155l-8.12,1.41c.09,4.13.92,22.56,8.87,30.88,2,2.06,11.72-.8,18-3.48a1,1,0,0,1,1.39.92Z" fill="#093f68"></path><path d="M206.2,115.13a6.59,6.59,0,0,1,1.77,3c3.86-3.31,9.73-3.65,14.39-1.6s8.18,6.16,10.45,10.71c2,4.08,2.51,8.78,2.56,13.28s-1.09,8.68-1,13.15c0,1.59-.15,1.89-1.72,2.12a32.75,32.75,0,0,1-4.43,0H193.31c-.48,0-7.53.3-7.61,0-.27-1,.15-2.07.19-3,.14-3.26-1-6.91-1.12-10.23-.26-5.15-1.28-9.65.83-14.49a31.18,31.18,0,0,1,9.59-12.27,11,11,0,0,1,6.09-2.65A6.83,6.83,0,0,1,206.2,115.13Z" fill="#725858"></path><path d="M187.6,156.94c-2.63,0-2.7-.24-2.87-.89a5.43,5.43,0,0,1,0-2.41,5.86,5.86,0,0,0,.12-.9,28.56,28.56,0,0,0-.55-5.64,38.71,38.71,0,0,1-.57-4.5c-.06-1-.14-2.07-.22-3.07-.33-4-.65-7.79,1.13-11.87a32.23,32.23,0,0,1,9.9-12.67,12.19,12.19,0,0,1,6.67-2.85,7.77,7.77,0,0,1,5.65,2.28h0a7.44,7.44,0,0,1,1.53,2.11,15.22,15.22,0,0,1,14.33-.9c4.44,2,8.33,5.92,11,11.18,2.27,4.56,2.61,9.72,2.66,13.71a50.08,50.08,0,0,1-.51,6.56,46.33,46.33,0,0,0-.48,6.58c0,1.9-.32,2.8-2.57,3.13a16.88,16.88,0,0,1-3.18.05c-.47,0-.95,0-1.4,0H193.31l-.82,0C190.27,156.9,188.71,156.94,187.6,156.94Zm-.94-1.44v0Zm0-.58c.94,0,2.89,0,5.8-.09l.89,0h34.92c.48,0,1,0,1.5,0a16.1,16.1,0,0,0,2.79,0,2.24,2.24,0,0,0,.83-.2,6.58,6.58,0,0,0,0-.91,46.43,46.43,0,0,1,.5-6.86,48.79,48.79,0,0,0,.49-6.3c-.05-3.78-.36-8.64-2.45-12.84-2.41-4.84-5.95-8.48-10-10.24-4.61-2-10-1.45-13.34,1.44a1,1,0,0,1-1,.19,1,1,0,0,1-.67-.7,5.53,5.53,0,0,0-1.5-2.55h0a5.77,5.77,0,0,0-4.18-1.7c-2.18.07-4.19,1.43-5.52,2.44a30,30,0,0,0-9.28,11.88c-1.58,3.62-1.3,7-1,10.91.09,1,.17,2.06.22,3.13a38.33,38.33,0,0,0,.55,4.28,29.63,29.63,0,0,1,.58,6,7.21,7.21,0,0,1-.15,1.16A8.34,8.34,0,0,0,186.62,154.92Z" fill="#093f68"></path><path d="M206,171.68h6.87a0,0,0,0,1,0,0v4a2.92,2.92,0,0,1-2.92,2.92h-1a2.92,2.92,0,0,1-2.92-2.92v-4a0,0,0,0,1,0,0Z" fill="#ffc9b0"></path><path d="M209.92,179.55h-1a3.92,3.92,0,0,1-3.92-3.91v-4a1,1,0,0,1,1-1h6.87a1,1,0,0,1,1,1v4A3.92,3.92,0,0,1,209.92,179.55ZM207,172.68v3a1.92,1.92,0,0,0,1.92,1.91h1a1.92,1.92,0,0,0,1.92-1.91v-3Z" fill="#093f68"></path><ellipse cx="190.92" cy="153.85" rx="6.28" ry="5.75" fill="#ffc9b0"></ellipse><path d="M190.92,160.6a6.77,6.77,0,1,1,7.28-6.75A7,7,0,0,1,190.92,160.6Zm0-11.5a4.78,4.78,0,1,0,5.28,4.75A5,5,0,0,0,190.92,149.1Z" fill="#093f68"></path><ellipse cx="227.54" cy="153.85" rx="6.28" ry="5.75" fill="#ffc9b0"></ellipse><path d="M227.54,160.6a6.77,6.77,0,1,1,7.28-6.75A7,7,0,0,1,227.54,160.6Zm0-11.5a4.78,4.78,0,1,0,5.28,4.75A5,5,0,0,0,227.54,149.1Z" fill="#093f68"></path><path d="M209.41,172.59a20.26,20.26,0,0,1-16.15-8.12c-4.24-5.69-4.43-12.49-3.09-19.19.65-3.21,1.64-4.37,4.35-5.64a33.86,33.86,0,0,0,8.57-6.53,19.4,19.4,0,0,1-5.38,10.36,43,43,0,0,0,10.95-2.07c3.9-1.47,7.27-4,10.58-6.54L214,146.1a52.45,52.45,0,0,1,8.6-4.49c.41-.17,7-2.13,7-1.8v12.65A20.12,20.12,0,0,1,209.41,172.59Z" fill="#ffc9b0"></path><path d="M209.41,173.58a21.23,21.23,0,0,1-16.95-8.51c-3.86-5.18-4.93-11.72-3.27-20,.69-3.42,1.84-4.9,4.91-6.35a33,33,0,0,0,8.29-6.34,1,1,0,0,1,1.69.89,20.53,20.53,0,0,1-3.93,8.93,34,34,0,0,0,8.16-1.75c3.79-1.42,7.11-4,10.32-6.4a1,1,0,0,1,1.51,1.22l-3.87,8.27a53.82,53.82,0,0,1,5.92-2.87c.06,0,6.88-2.4,7.88-1.72a1,1,0,0,1,.46.85v12.65A21.14,21.14,0,0,1,209.41,173.58Zm-8.2-37.35a27.91,27.91,0,0,1-6.26,4.31c-2.52,1.18-3.23,2.11-3.8,4.93-1.54,7.69-.59,13.71,2.91,18.41a19.13,19.13,0,0,0,34.47-11.42V141c-1.72.4-5.12,1.41-5.59,1.59a51.06,51.06,0,0,0-8.42,4.4,1,1,0,0,1-1.21-.09,1,1,0,0,1-.24-1.18l3.57-7.63a33.14,33.14,0,0,1-7.62,4.29,43.54,43.54,0,0,1-11.21,2.13,1,1,0,0,1-.8-1.7A18.5,18.5,0,0,0,201.21,136.23Z" fill="#093f68"></path><path d="M207.52,160.17a11.85,11.85,0,0,1-1.87-.16,1,1,0,1,1,.34-2,8.89,8.89,0,0,0,2.26.09,16,16,0,0,0-1.51-3.86,1,1,0,0,1,1.78-.92c1,2,2.14,4.6,1.58,5.84a1.37,1.37,0,0,1-.95.8A6.9,6.9,0,0,1,207.52,160.17Z" fill="#093f68"></path><circle cx="215.17" cy="153.36" r="2.03" fill="#093f68"></circle><circle cx="197.2" cy="151.82" r="2.03" fill="#093f68"></circle><path d="M214.25,149.86a2,2,0,0,1,0-4l9.69-.21h0a2,2,0,0,1,0,4l-9.69.21Z" fill="#093f68"></path><path d="M204.45,149.3h-.11l-9.67-.53a2,2,0,1,1,.22-4l9.67.53a2,2,0,0,1-.11,4Z" fill="#093f68"></path><path d="M206.35,162.78h-.08c-1-.08-1,1.75-1,2.35a4.19,4.19,0,0,0,1.31,3.51,2.87,2.87,0,0,0,1.58.74,3.38,3.38,0,0,0,2.79-1.26,6.45,6.45,0,0,0,1.62-3.33c.09-.57,0-.94-.57-1.12A26.74,26.74,0,0,0,206.35,162.78Z" fill="#093f68"></path><path d="M206.47,193.73s-5-1.9-9.69,0c-3.79,1.55-5.86,4-4.73,6.22s8.81-.56,11.33,0,3.09-.28,3.09-.28Z" fill="#ffc9b0"></path><path d="M194.44,201.81c-1.53,0-2.72-.34-3.27-1.4a3.64,3.64,0,0,1-.18-3c.66-1.79,2.58-3.42,5.42-4.57,5-2,10.2-.1,10.42,0a1,1,0,0,1,.64.93v5.94a1,1,0,0,1-.16.55c-.23.34-1.18,1.37-4.14.71a15.92,15.92,0,0,0-4.24.37A30.13,30.13,0,0,1,194.44,201.81Zm6.91-7.92a11,11,0,0,0-4.19.77c-2.24.91-3.84,2.19-4.29,3.41a1.68,1.68,0,0,0,.07,1.42c.36.69,4.08.1,5.67-.16a15.34,15.34,0,0,1,5-.35,4.38,4.38,0,0,0,1.87.11v-4.63A15.74,15.74,0,0,0,201.35,193.89Z" fill="#093f68"></path><path d="M170.93,153.85s5.34-8.88,3.64-10-4.93,3.47-4.93,3.47-1.73-9.57-4.56-8.06-4.65,3.42-5.43,6.42,1.47,9.87,1.47,9.87Z" fill="#ffc9b0"></path><path d="M161.12,156.53a1,1,0,0,1-1-.69c-.24-.73-2.33-7.23-1.49-10.43s2.64-5.3,5.93-7a2.2,2.2,0,0,1,2-.05c1.77.86,2.92,4.34,3.52,6.72,1.36-1.51,3.35-3.12,5-2s.53,4.94-3.35,11.36a1,1,0,0,1-.68.47l-9.81,1.69Zm4.57-16.45a.3.3,0,0,0-.14,0c-2.79,1.49-4.27,3.22-4.94,5.79-.51,2,.54,6.23,1.21,8.49l8.48-1.46c2.12-3.58,3.73-7.29,3.62-8.31h0c-.5,0-2.09,1.3-3.46,3.24a1,1,0,0,1-1,.4,1,1,0,0,1-.77-.8c-.57-3.15-1.83-6.86-2.87-7.36A.16.16,0,0,0,165.69,140.08Zm5.24,13.77h0Z" fill="#093f68"></path><path d="M170.22,148.08s-4.24-.49-4.95,2.06" fill="#ffc9b0"></path><path d="M165.27,151.13a1.24,1.24,0,0,1-.27,0,1,1,0,0,1-.69-1.23c.74-2.66,4.14-3,6-2.78a1,1,0,1,1-.23,2c-.88-.1-3.48-.07-3.87,1.32A1,1,0,0,1,165.27,151.13Z" fill="#093f68"></path><path d="M206.47,194.73a1,1,0,0,1,0-2l14.57-.42.28-13.78a1,1,0,0,1,1-1,1,1,0,0,1,1,1L223,193.3a1,1,0,0,1-1,1l-15.53.45Z" fill="#093f68"></path><path d="M269.86,78.23H249.58a18.91,18.91,0,0,0-18.9,18.91h0a18.91,18.91,0,0,0,18.9,18.91h11.54l8.24,11.62-.79-11.62h1.29a18.91,18.91,0,0,0,18.91-18.91h0A18.91,18.91,0,0,0,269.86,78.23Z" fill="#fff"></path><path d="M269.36,128.67a1,1,0,0,1-.81-.42L260.61,117h-11a19.91,19.91,0,0,1,0-39.81h20.28a19.91,19.91,0,1,1,0,39.81h-.22l.72,10.57a1,1,0,0,1-.66,1A1.33,1.33,0,0,1,269.36,128.67ZM249.58,79.23a17.91,17.91,0,0,0,0,35.81h11.54a1,1,0,0,1,.82.43l6.18,8.73-.54-8.09a1,1,0,0,1,.26-.75,1,1,0,0,1,.73-.32h1.29a17.91,17.91,0,1,0,0-35.81Z" fill="#dfeaef"></path><path d="M166.09,78.7H143.85a16.36,16.36,0,0,0-2.48,32.53l-.81,11.83,8.23-11.62h17.3a16.37,16.37,0,1,0,0-32.74Z" fill="#fff"></path><path d="M140.56,124.06a1,1,0,0,1-.33-.06,1,1,0,0,1-.66-1l.74-10.93a17.36,17.36,0,0,1,3.54-34.36h22.24a17.37,17.37,0,1,1,0,34.74H149.31l-7.93,11.19A1,1,0,0,1,140.56,124.06Zm3.29-44.36a15.36,15.36,0,0,0-2.33,30.55,1,1,0,0,1,.84,1l-.56,8.28,6.18-8.71a1,1,0,0,1,.81-.43h17.3a15.37,15.37,0,1,0,0-30.74Z" fill="#dfeaef"></path><path d="M214.38,74.14a15.3,15.3,0,0,0-15.29-15.29h-16a15.29,15.29,0,0,0,0,30.58h12.94c2.2,3.21,5.77,8.18,5.77,8.18l1-8.67A15.29,15.29,0,0,0,214.38,74.14Z" fill="#fff"></path><path d="M201.82,98.61a1,1,0,0,1-.81-.42s-3.29-4.58-5.49-7.76H183.11a16.29,16.29,0,0,1,0-32.58h16a16.28,16.28,0,0,1,4.68,31.88l-1,8a1.05,1.05,0,0,1-1,.89ZM183.11,59.85a14.29,14.29,0,0,0,0,28.58h12.94a1,1,0,0,1,.82.43c1.28,1.86,3,4.33,4.27,6.07l.73-6.11a1,1,0,0,1,.74-.85,14.28,14.28,0,0,0-3.52-28.12Z" fill="#dfeaef"></path></g></svg>