<svg xmlns="http://www.w3.org/2000/svg" viewBox="0 0 400 300" width="406" height="306" class="illustration styles_illustrationTablet__1DWOa"><g id="_67_chat_outline" data-name="#67_chat_outline"><rect x="152.11" y="75.7" width="91.1" height="148.61" rx="9.89" fill="#706BDA"></rect><path d="M233.31,225.3H162a10.9,10.9,0,0,1-10.89-10.89V85.59A10.9,10.9,0,0,1,162,74.7h71.31a10.9,10.9,0,0,1,10.9,10.89V214.41A10.9,10.9,0,0,1,233.31,225.3ZM162,76.7a8.9,8.9,0,0,0-8.89,8.89V214.41A8.9,8.9,0,0,0,162,223.3h71.31a8.9,8.9,0,0,0,8.9-8.89V85.59a8.9,8.9,0,0,0-8.9-8.89Z" fill="#093f68"></path><rect x="152.11" y="88.08" width="91.1" height="113.75" fill="#fff"></rect><path d="M243.21,202.83h-91.1a1,1,0,0,1-1-1V88.08a1,1,0,0,1,1-1h91.1a1,1,0,0,1,1,1V201.83A1,1,0,0,1,243.21,202.83Zm-90.1-2h89.1V89.08h-89.1Z" fill="#093f68"></path><rect x="194.8" y="166.36" width="41.43" height="12.44" rx="3.46" fill="#dfeaef"></rect><path d="M232.78,179.8H198.26a4.46,4.46,0,0,1-4.46-4.46v-5.53a4.46,4.46,0,0,1,4.46-4.45h34.52a4.46,4.46,0,0,1,4.45,4.45v5.53A4.46,4.46,0,0,1,232.78,179.8Zm-34.52-12.44a2.46,2.46,0,0,0-2.46,2.45v5.53a2.46,2.46,0,0,0,2.46,2.46h34.52a2.46,2.46,0,0,0,2.45-2.46v-5.53a2.45,2.45,0,0,0-2.45-2.45Z" fill="#dfeaef"></path><rect x="194.8" y="95.77" width="41.43" height="15.96" rx="3.91" fill="#dfeaef"></rect><path d="M232.32,112.72h-33.6a4.92,4.92,0,0,1-4.92-4.91V99.68a4.92,4.92,0,0,1,4.92-4.91h33.6a4.91,4.91,0,0,1,4.91,4.91v8.13A4.91,4.91,0,0,1,232.32,112.72Zm-33.6-16a2.91,2.91,0,0,0-2.92,2.91v8.13a2.92,2.92,0,0,0,2.92,2.91h33.6a2.92,2.92,0,0,0,2.91-2.91V99.68a2.91,2.91,0,0,0-2.91-2.91Z" fill="#dfeaef"></path><rect x="156.51" y="148.34" width="41.43" height="11.73" rx="3.36" fill="#dfeaef"></rect><path d="M194.58,161.07H159.87a4.36,4.36,0,0,1-4.36-4.36v-5a4.36,4.36,0,0,1,4.36-4.35h34.71a4.36,4.36,0,0,1,4.36,4.35v5A4.36,4.36,0,0,1,194.58,161.07Zm-34.71-11.73a2.36,2.36,0,0,0-2.36,2.35v5a2.36,2.36,0,0,0,2.36,2.36h34.71a2.36,2.36,0,0,0,2.36-2.36v-5a2.36,2.36,0,0,0-2.36-2.35Z" fill="#dfeaef"></path><rect x="156.51" y="114.27" width="41.43" height="26.94" rx="5.09" fill="#dfeaef"></rect><path d="M192.85,142.21H161.6a6.09,6.09,0,0,1-6.09-6.09V119.35a6.09,6.09,0,0,1,6.09-6.08h31.25a6.09,6.09,0,0,1,6.09,6.08v16.77A6.09,6.09,0,0,1,192.85,142.21ZM161.6,115.27a4.09,4.09,0,0,0-4.09,4.08v16.77a4.1,4.1,0,0,0,4.09,4.09h31.25a4.09,4.09,0,0,0,4.09-4.09V119.35a4.09,4.09,0,0,0-4.09-4.08Z" fill="#dfeaef"></path><path d="M207.23,83.08H192.59a1,1,0,0,1,0-2h14.64a1,1,0,0,1,0,2Z" fill="#093f68"></path><path d="M188.08,83.08a1,1,0,0,1-1-1,1.36,1.36,0,0,1,0-.2l.06-.19.09-.17.13-.15a1,1,0,0,1,1.41,0l.13.15.09.17.06.19a1.36,1.36,0,0,1,0,.2,1,1,0,0,1-.3.7.87.87,0,0,1-.32.22A1,1,0,0,1,188.08,83.08Z" fill="#093f68"></path><circle cx="197.66" cy="212.64" r="4.67" fill="#093f68"></circle><path d="M192.45,95.77h-57a5.21,5.21,0,0,0-5.21,5.2v31.45a5.21,5.21,0,0,0,5.21,5.2h34.18l7.26,12.65V137.62h15.57a5.2,5.2,0,0,0,5.21-5.2V101A5.2,5.2,0,0,0,192.45,95.77Z" fill="#ffbc0e"></path><path d="M176.88,151.27a1,1,0,0,1-.87-.51l-7-12.14h-33.6a6.21,6.21,0,0,1-6.21-6.2V101a6.21,6.21,0,0,1,6.21-6.2h57a6.21,6.21,0,0,1,6.21,6.2v31.45a6.21,6.21,0,0,1-6.21,6.2H177.88v11.65a1,1,0,0,1-.74,1A.82.82,0,0,1,176.88,151.27Zm-41.44-54.5a4.21,4.21,0,0,0-4.21,4.2v31.45a4.21,4.21,0,0,0,4.21,4.2h34.18a1,1,0,0,1,.87.51l5.39,9.39v-8.9a1,1,0,0,1,1-1h15.57a4.21,4.21,0,0,0,4.21-4.2V101a4.21,4.21,0,0,0-4.21-4.2Z" fill="#093f68"></path><path d="M213.62,123.75h51.45a4.7,4.7,0,0,1,4.7,4.7v28.37a4.7,4.7,0,0,1-4.7,4.7H234.22l-6.55,11.41V161.52h-14a4.69,4.69,0,0,1-4.7-4.7V128.45A4.69,4.69,0,0,1,213.62,123.75Z" fill="#f56132"></path><path d="M227.67,173.93l-.26,0a1,1,0,0,1-.74-1V162.52h-13a5.71,5.71,0,0,1-5.7-5.7V128.45a5.7,5.7,0,0,1,5.7-5.7h51.45a5.7,5.7,0,0,1,5.7,5.7v28.37a5.71,5.71,0,0,1-5.7,5.7H234.8l-6.26,10.91A1,1,0,0,1,227.67,173.93Zm-14-49.18a3.7,3.7,0,0,0-3.7,3.7v28.37a3.7,3.7,0,0,0,3.7,3.7h14a1,1,0,0,1,1,1v7.66l4.68-8.16a1,1,0,0,1,.87-.5h30.85a3.7,3.7,0,0,0,3.7-3.7V128.45a3.7,3.7,0,0,0-3.7-3.7Z" fill="#093f68"></path><path d="M232.29,195.49H163a4.95,4.95,0,1,1,0-9.89h69.26a4.95,4.95,0,0,1,0,9.89ZM163,187.6a2.95,2.95,0,1,0,0,5.89h69.26a2.95,2.95,0,0,0,0-5.89Z" fill="#dfeaef"></path><path d="M184.78,108H143.11a1,1,0,0,1,0-2h41.67a1,1,0,0,1,0,2Z" fill="#093f68"></path><path d="M184.78,116.08H143.11a1,1,0,0,1,0-2h41.67a1,1,0,0,1,0,2Z" fill="#093f68"></path><path d="M172.19,124.17H143.11a1,1,0,0,1,0-2h29.08a1,1,0,0,1,0,2Z" fill="#093f68"></path><path d="M260.18,134.21H218.51a1,1,0,0,1,0-2h41.67a1,1,0,0,1,0,2Z" fill="#093f68"></path><path d="M260.18,142.29H218.51a1,1,0,0,1,0-2h41.67a1,1,0,0,1,0,2Z" fill="#093f68"></path><path d="M247.59,150.38H218.51a1,1,0,0,1,0-2h29.08a1,1,0,1,1,0,2Z" fill="#093f68"></path></g></svg>