<svg id="Layer_1" data-name="Layer 1" xmlns="http://www.w3.org/2000/svg" viewBox="0 0 400 300" width="406" height="306" class="illustration styles_illustrationTablet__1DWOa"><title>#132_world connection_twocolour</title><ellipse cx="200.49" cy="266.56" rx="103.82" ry="11.07" fill="#e6e6e6" opacity="0.45"></ellipse><circle cx="331.63" cy="92.13" r="17.06" fill="#ffd200"></circle><circle cx="331.63" cy="92.13" r="32.52" fill="#ffd200" opacity="0.15"></circle><path d="M133.76,125a10.13,10.13,0,0,0-10.13-10.13A10.86,10.86,0,0,0,122,115a13.64,13.64,0,0,0-12-7.19l-.49,0a16.46,16.46,0,0,0,.49-3.93,16.21,16.21,0,1,0-32.41,0,16,16,0,0,0,.5,3.93c-.17,0-.33,0-.5,0a13.66,13.66,0,0,0,0,27.31H125V135A10.12,10.12,0,0,0,133.76,125Z" fill="#e6e6e6" opacity="0.37"></path><circle cx="196.79" cy="152.27" r="88.63" fill="#efefef"></circle><path d="M131.29,94.25s.77,12.79,9.55,9,20.6-8,19.32,6.07,5.75,16,15.66,12.47,5.11-4.48,5.75-17.26-16-13.42-13.42-22.37,22.52,1.72,15.58-17.52C183.73,64.59,148.76,67.48,131.29,94.25Z" fill="#cecece"></path><path d="M205.06,127.56a12.94,12.94,0,0,0-5.38,1.18c-3.5,1.67-7.72,5.7-5.33,15.32,3.84,15.39,10.23,3.95,18.54,5.83s27.17,3.81,17.9,20.74,1.28,20.46,10.22,16.3,2.88-20.77,12.15-13.42-1.38,30.52,21.2,21.65c0,0,26-39.35,0-85.79,0,0-11.78-22.54-21.05-14.55s3.49,8.44,4.77,17.61S254,132.8,246.55,122.5s-4.9-9.39-16.72-10.67c-9.45-1-16,.11-16.19,8.13a7.75,7.75,0,0,1-7.63,7.59Z" fill="#cecece"></path><path d="M202.73,77.63s-9.2-2.55-9.08,8.63,6.2,10.54,12.91,7.67,1,6.39,13.74,3.84,13.75-5.56,10.87-10S223.5,66.45,202.73,77.63Z" fill="#cecece"></path><path d="M108.15,152.27s10.82-17.68,22.63-5.73-11.43,10,.51,21.54,20.23-15.23,27-5.06,19.87,17.08,4.45,26-6.2,21.37.91,18.74,19.73,15.36,0,26.49C163.6,234.28,105.68,213.15,108.15,152.27Z" fill="#cecece"></path><path d="M200.82,172.55s-12.14,0-12.18,11.51,22.68.62,17.39,13.09,7.14,15.83,14,10.64-5-20.83-3.85-31.87S202.17,167.44,200.82,172.55Z" fill="#cecece"></path><path d="M196.79,240.9S189,232.63,206,230.72s17.46-10.87,23-14.71,17.34,9.71,17.34,9.71S224.53,245.33,196.79,240.9Z" fill="#cecece"></path><path d="M262.72,174.58s-16,3.34-11.48,19c0,0-15.14,8.94-10,20.54,0,0,2.15,6.92,12.82,5.77,0,0,4.5-4,5.27-4.84S262.72,174.58,262.72,174.58Z" opacity="0.08"></path><path d="M307.06,205.88a9.16,9.16,0,0,0-9.17-9.17,8.93,8.93,0,0,0-1.47.13,12.35,12.35,0,0,0-10.89-6.51l-.46,0a14.41,14.41,0,0,0,.46-3.56,14.68,14.68,0,0,0-29.35,0,14.41,14.41,0,0,0,.45,3.56l-.45,0a12.36,12.36,0,1,0,0,24.72h42.9V215A9.18,9.18,0,0,0,307.06,205.88Z" fill="#f7f7f7"></path><rect x="60.24" y="186.02" width="80.59" height="46.13" fill="#24285b"></rect><path d="M92.17,203.08a9.69,9.69,0,1,0-18,5h0l8.27,13.55,8.23-13.49h0A9.64,9.64,0,0,0,92.17,203.08Zm-9.69,5.14a4.74,4.74,0,1,1,4.74-4.74A4.74,4.74,0,0,1,82.48,208.22Z" fill="#ffd200"></path><rect x="100.81" y="198.75" width="29.29" height="6.64" fill="#fff"></rect><polygon points="165.33 67.8 196.79 172.12 262.44 110.8 165.33 67.8" fill="none" stroke="#24285b" stroke-linecap="round" stroke-linejoin="round" stroke-width="2" stroke-dasharray="2 10"></polygon><rect x="100.81" y="210.8" width="29.29" height="6.64" fill="#fff" opacity="0.19"></rect><circle cx="165.61" cy="65.98" r="23.08" fill="#24285b"></circle><path d="M168.68,55.39a20.48,20.48,0,0,1,.38,5.46,1.66,1.66,0,0,1-1.86,1.42A3.63,3.63,0,0,1,164,59.88l-1.32-2.75a3,3,0,0,1,.92-3.29C165.33,52.3,168.38,53.4,168.68,55.39Z" fill="#f4a28c"></path><polygon points="162.96 57.63 162.53 68.42 168.49 68.23 166.41 60.46 162.96 57.63" fill="#f4a28c"></polygon><path d="M167.89,55.62a13.11,13.11,0,0,1-3,.13,2.73,2.73,0,0,1,.35,3,2.24,2.24,0,0,1-2.58,1.2l-.44-4.2a3.37,3.37,0,0,1,1.33-3.18,12.59,12.59,0,0,1,1.33-.85c1.15-.63,3,0,4-1a.8.8,0,0,1,1.32.37c.34,1.26.35,3.3-1.3,4.2A3,3,0,0,1,167.89,55.62Z" fill="#ffd200"></path><path d="M165.54,58.6s-.17-1.25-1.11-1.05-.69,2,.61,2.05Z" fill="#f4a28c"></path><path d="M169,57.44l1.06,1.16a.53.53,0,0,1-.23.86l-1.22.38Z" fill="#f4a28c"></path><path d="M166.94,62.14a3.86,3.86,0,0,1-2.05-.92,6.14,6.14,0,0,0,2.7,3.64Z" fill="#ce8172" opacity="0.31"></path><path d="M150.06,83s-.36-14.49,15.27-15.24,15.21,15.88,15.21,15.88S165.8,97.11,150.06,83Z" fill="#6F6CD9"></path><circle cx="198.13" cy="167.97" r="23.08" fill="#24285b"></circle><path d="M201.2,157.38a20.48,20.48,0,0,1,.38,5.46,1.66,1.66,0,0,1-1.86,1.42,3.63,3.63,0,0,1-3.16-2.39l-1.32-2.75a3,3,0,0,1,.92-3.29C197.85,154.29,200.9,155.39,201.2,157.38Z" fill="#f4a28c"></path><polygon points="195.48 159.62 195.05 170.41 201.01 170.22 198.93 162.45 195.48 159.62" fill="#f4a28c"></polygon><path d="M201.52,159.43l1.06,1.16a.52.52,0,0,1-.23.86l-1.22.38Z" fill="#f4a28c"></path><path d="M199.46,164.13a3.86,3.86,0,0,1-2.05-.92,6.14,6.14,0,0,0,2.7,3.64Z" fill="#ce8172" opacity="0.31"></path><path d="M182.58,185s-.36-14.49,15.27-15.24,15.21,15.88,15.21,15.88S198.32,199.1,182.58,185Z" fill="#6F6CD9"></path><path d="M195.34,163.05l-1.8-3.36s-3,.33-3.12-1.88,2.25-1.67,2.25-3.13-.3-3.66,2-3.62,3,1.95,4,.72a1.66,1.66,0,0,1,2.9,1.11c.13,1.5,1.7,1,1.06,3.17s-4,1-4,1-3,0-2.64,1.33S198.85,162.51,195.34,163.05Z" fill="#ffd200"></path><path d="M197.5,160.26s-.53-1.15-1.37-.68-.06,2.15,1.19,1.78Z" fill="#f4a28c"></path><circle cx="262.72" cy="108.98" r="23.08" fill="#24285b"></circle><path d="M265.8,98.39a20.21,20.21,0,0,1,.37,5.46,1.65,1.65,0,0,1-1.86,1.42,3.65,3.65,0,0,1-3.16-2.39l-1.32-2.75a3,3,0,0,1,.92-3.29C262.44,95.3,265.49,96.4,265.8,98.39Z" fill="#f4a28c"></path><polygon points="260.07 100.63 259.64 111.42 265.6 111.23 263.52 103.46 260.07 100.63" fill="#f4a28c"></polygon><path d="M262.65,101.6s-.17-1.26-1.11-1-.69,2,.61,2Z" fill="#f4a28c"></path><path d="M266.11,100.44l1.06,1.15a.53.53,0,0,1-.23.87l-1.22.38Z" fill="#f4a28c"></path><path d="M264.05,105.14a3.86,3.86,0,0,1-2.05-.92,6.17,6.17,0,0,0,2.7,3.64Z" fill="#ce8172" opacity="0.31"></path><path d="M247.17,126s-.36-14.49,15.27-15.24,15.21,15.88,15.21,15.88S262.91,140.11,247.17,126Z" fill="#6F6CD9"></path><path d="M254.29,106.29a5.62,5.62,0,0,0-.55,4.69,3.16,3.16,0,0,0,3.25,2.38c4.12-.15,3.5-1.36,4-7.26.51-5.55,1-7.19,4.23-8s1.25-4-1.64-4-7.83.22-7.68,5.39A12.83,12.83,0,0,1,254.29,106.29Z" fill="#ffd200"></path></svg>