<svg xmlns="http://www.w3.org/2000/svg" viewBox="0 0 400 300" width="406" height="306" class="illustration styles_illustrationTablet__1DWOa"><g id="_19_security_outline" data-name="#19_security_outline"><rect x="106.34" y="67.39" width="187.17" height="127.55" rx="10.92" fill="#6F6CD9"></rect><path d="M282.6,195.93H117.26A11.93,11.93,0,0,1,105.34,184V78.3a11.94,11.94,0,0,1,11.92-11.92H282.6A11.93,11.93,0,0,1,294.51,78.3V184A11.92,11.92,0,0,1,282.6,195.93ZM117.26,68.38a9.93,9.93,0,0,0-9.92,9.92V184a9.93,9.93,0,0,0,9.92,9.91H282.6a9.93,9.93,0,0,0,9.91-9.91V78.3a9.93,9.93,0,0,0-9.91-9.92Z" fill="#093f68"></path><polygon points="229.84 222.36 170.02 222.36 176.26 194.93 223.59 194.93 229.84 222.36" fill="#6F6CD9"></polygon><path d="M229.84,223.36H170a1,1,0,0,1-.78-.38,1,1,0,0,1-.19-.84l6.24-27.43a1,1,0,0,1,1-.78h47.33a1,1,0,0,1,1,.78l6.24,27.43a1,1,0,0,1-.19.84A1,1,0,0,1,229.84,223.36Zm-58.57-2h57.31l-5.78-25.43H177.06Z" fill="#093f68"></path><rect x="119.1" y="78.01" width="161.66" height="94.66" fill="#fff"></rect><path d="M280.76,173.68H119.1a1,1,0,0,1-1-1V78a1,1,0,0,1,1-1H280.76a1,1,0,0,1,1,1v94.67A1,1,0,0,1,280.76,173.68Zm-160.66-2H279.76V79H120.1Z" fill="#093f68"></path><rect x="157.56" y="222.36" width="84.75" height="10.26" rx="5.13" fill="#6F6CD9"></rect><path d="M237.17,233.62H162.68a6.13,6.13,0,0,1,0-12.26h74.49a6.13,6.13,0,1,1,0,12.26Zm-74.49-10.26a4.13,4.13,0,0,0,0,8.26h74.49a4.13,4.13,0,1,0,0-8.26Z" fill="#093f68"></path><path d="M235.23,108c0,29.71-28.53,53.8-35.3,53.8s-35.3-24.09-35.3-53.8c0,0,15.8-11.53,35.3-11.53S235.23,108,235.23,108Z" fill="#70cc40"></path><path d="M199.93,162.75c-7.12,0-36.3-24.62-36.3-54.8a1,1,0,0,1,.41-.81c.66-.47,16.29-11.72,35.89-11.72s35.23,11.25,35.89,11.72a1,1,0,0,1,.41.81C236.23,138.13,207,162.75,199.93,162.75Zm-34.3-54.28c.34,28.21,27.83,52.28,34.3,52.28s34-24.07,34.29-52.28c-2.6-1.77-17.08-11-34.29-11S168.23,106.7,165.63,108.47Z" fill="#093f68"></path><path d="M193.66,141.13l-10.41-10.42a1.69,1.69,0,0,1,0-2.39l3.28-3.26a1.69,1.69,0,0,1,2.39,0l5.23,5.24a1.08,1.08,0,0,0,1.53,0l17.12-17.08a2.45,2.45,0,0,1,3.47,0l2.18,2.18a2.45,2.45,0,0,1,0,3.48l-22.23,22.24A1.84,1.84,0,0,1,193.66,141.13Z" fill="#fff"></path><path d="M193.16,175.13a2.23,2.23,0,0,1-.56-.08l-14.91-4.39a2,2,0,0,1,1.13-3.84l14.91,4.39a2,2,0,0,1-.57,3.92Z" fill="#093f68"></path><path d="M176.5,176.27a8.29,8.29,0,0,1-2.46-.37l-9.5-3a8.26,8.26,0,0,1-5.43-10.32l.24-.77a8.25,8.25,0,0,1,10.32-5.43l9.5,2.95a8.24,8.24,0,0,1,5.43,10.32l-.24.77a8.26,8.26,0,0,1-7.86,5.8Zm-9.27-16.21a4.24,4.24,0,0,0-4.06,3l-.24.78a4.25,4.25,0,0,0,2.79,5.31l9.51,3h0a4.25,4.25,0,0,0,5.31-2.8l.24-.77a4.25,4.25,0,0,0-2.8-5.31l-9.5-2.95A4.22,4.22,0,0,0,167.23,160.06Z" fill="#093f68"></path><path d="M164.63,165a2,2,0,0,1-.89-.21l-13.9-6.94a2,2,0,1,1,1.78-3.58l13.9,6.94a2,2,0,0,1-.89,3.79Z" fill="#093f68"></path><path d="M148,164.78a8.13,8.13,0,0,1-3.83-.95h0l-8.8-4.64a8.25,8.25,0,0,1-3.45-11.14l.38-.71a8.26,8.26,0,0,1,11.14-3.45l8.8,4.64a8.25,8.25,0,0,1,3.45,11.14l-.38.72A8.27,8.27,0,0,1,148,164.78Zm-2-4.49a4.25,4.25,0,0,0,5.73-1.77l.38-.72a4.24,4.24,0,0,0-1.78-5.73l-8.8-4.64a4.25,4.25,0,0,0-5.73,1.77l-.38.72a4.25,4.25,0,0,0,1.77,5.73Z" fill="#093f68"></path><path d="M139.15,153.91a2,2,0,0,1-.89-.21l-13.9-6.92a2,2,0,1,1,1.78-3.58l13.9,6.92a2,2,0,0,1,.9,2.68A2,2,0,0,1,139.15,153.91Z" fill="#093f68"></path><path d="M124.17,152.83a8.18,8.18,0,0,1-4.85-1.59h0l-8-5.86a8.25,8.25,0,0,1-1.79-11.52l.48-.66a8.23,8.23,0,0,1,11.51-1.79l8,5.86a8.26,8.26,0,0,1,1.8,11.52l-.48.66A8.24,8.24,0,0,1,124.17,152.83ZM121.68,148a4.25,4.25,0,0,0,5.93-.92l.48-.66a4.25,4.25,0,0,0-.93-5.93l-8-5.86a4.24,4.24,0,0,0-5.92.92l-.48.66a4.25,4.25,0,0,0,.92,5.93l8,5.86Z" fill="#093f68"></path><path d="M116.74,140.61a2,2,0,0,1-1.32-.5L103,129.29a2,2,0,1,1,2.63-3l12.39,10.82a2,2,0,0,1,.19,2.82A2,2,0,0,1,116.74,140.61Z" fill="#093f68"></path><path d="M206.69,175.13a2,2,0,0,1-.56-3.92l14.9-4.39a2,2,0,1,1,1.13,3.84l-14.9,4.39A2.24,2.24,0,0,1,206.69,175.13Z" fill="#093f68"></path><path d="M223.36,176.27a8.24,8.24,0,0,1-7.86-5.8l-.24-.77a8.24,8.24,0,0,1,5.43-10.32l9.5-2.95a8.23,8.23,0,0,1,10.32,5.43l.24.77A8.26,8.26,0,0,1,235.32,173l-9.5,3h0A8.34,8.34,0,0,1,223.36,176.27Zm1.86-2.28h0Zm7.41-13.93a4.17,4.17,0,0,0-1.25.19l-9.51,2.95a4.25,4.25,0,0,0-2.79,5.31l.24.77a4.25,4.25,0,0,0,5.31,2.8l9.5-3a4.25,4.25,0,0,0,2.8-5.31l-.24-.78A4.25,4.25,0,0,0,232.63,160.06Z" fill="#093f68"></path><path d="M235.23,165a2,2,0,0,1-.9-3.79l13.9-6.94a2,2,0,1,1,1.79,3.58l-13.9,6.94A2,2,0,0,1,235.23,165Z" fill="#093f68"></path><path d="M251.83,164.78a8.26,8.26,0,0,1-7.3-4.39l-.38-.72a8.25,8.25,0,0,1,3.45-11.14l8.8-4.64a8.26,8.26,0,0,1,11.14,3.45l.38.71a8.25,8.25,0,0,1-3.45,11.14l-8.8,4.64h0A8.17,8.17,0,0,1,251.83,164.78Zm2.9-2.72h0Zm5.51-15.12a4.22,4.22,0,0,0-2,.49l-8.81,4.64a4.25,4.25,0,0,0-1.77,5.73l.38.72a4.25,4.25,0,0,0,5.73,1.77l8.8-4.64a4.24,4.24,0,0,0,1.78-5.73l-.38-.72A4.25,4.25,0,0,0,260.24,146.94Z" fill="#093f68"></path><path d="M260.71,153.91a2,2,0,0,1-1.79-1.11,2,2,0,0,1,.89-2.68l13.91-6.92a2,2,0,1,1,1.78,3.58l-13.9,6.92A2,2,0,0,1,260.71,153.91Z" fill="#093f68"></path><path d="M275.69,152.83a8.23,8.23,0,0,1-6.67-3.38l-.48-.66a8.26,8.26,0,0,1,1.8-11.52l8-5.86a8.24,8.24,0,0,1,11.52,1.79l.48.66a8.26,8.26,0,0,1-1.8,11.52l-8,5.86h0A8.22,8.22,0,0,1,275.69,152.83Zm3.67-3.2h0Zm3.87-15.81a4.25,4.25,0,0,0-2.5.82l-8,5.86a4.25,4.25,0,0,0-.93,5.93l.48.66a4.25,4.25,0,0,0,5.93.92l8-5.86a4.23,4.23,0,0,0,.93-5.93l-.48-.66A4.25,4.25,0,0,0,283.23,133.82Z" fill="#093f68"></path><path d="M283.12,140.61a2,2,0,0,1-1.62-.84A2,2,0,0,1,282,137l12.54-9a2,2,0,0,1,2.33,3.25l-12.53,9A2,2,0,0,1,283.12,140.61Z" fill="#093f68"></path><path d="M209,187.4a2,2,0,0,1-2-2v-9.08a7.09,7.09,0,1,0-14.17,0v9.08a2,2,0,0,1-4,0v-9.08a11.09,11.09,0,1,1,22.17,0v9.08A2,2,0,0,1,209,187.4Z" fill="#093f68"></path><rect x="183.56" y="185.4" width="32.73" height="30.1" rx="4.8" fill="#f56132"></rect><path d="M211.49,216.5H188.37a5.81,5.81,0,0,1-5.81-5.8V190.2a5.81,5.81,0,0,1,5.81-5.8h23.12a5.8,5.8,0,0,1,5.8,5.8v20.5A5.8,5.8,0,0,1,211.49,216.5Zm-23.12-30.1a3.81,3.81,0,0,0-3.81,3.8v20.5a3.81,3.81,0,0,0,3.81,3.8h23.12a3.8,3.8,0,0,0,3.8-3.8V190.2a3.8,3.8,0,0,0-3.8-3.8Z" fill="#093f68"></path><path d="M204,195.53a4,4,0,1,0-5.55,3.75v8.84h3v-8.84A4,4,0,0,0,204,195.53Z" fill="#093f68"></path><path d="M201.44,209.12h-3a1,1,0,0,1-1-1V199.9a5,5,0,1,1,5,0v8.22A1,1,0,0,1,201.44,209.12Zm-2-2h1v-7.84a1,1,0,0,1,.62-.93,3,3,0,1,0-2.27,0,1,1,0,0,1,.63.93Z" fill="#093f68"></path><path d="M280,90.81H119.85a1,1,0,0,1,0-2H280a1,1,0,0,1,0,2Z" fill="#093f68"></path><circle cx="127.83" cy="84.02" r="2.48" fill="#ffbc0e"></circle><circle cx="137.47" cy="84.02" r="2.48" fill="#093f68"></circle><circle cx="147.11" cy="84.02" r="2.48" fill="#093f68"></circle></g></svg>