<svg xmlns="http://www.w3.org/2000/svg" viewBox="0 0 400 300" width="406" height="306" class="illustration styles_illustrationTablet__1DWOa"><g id="_108_hero_employee_outline" data-name="#108_hero_employee_outline"><path d="M169.74,175.8a19.14,19.14,0,0,0-5.2,7.24c-2,5-1.85,10.89-4.8,15.42-2.45,3.76-6.69,6-11,7.38s-8.73,2.18-12.86,3.92a30.13,30.13,0,0,0-17,18.91,3.24,3.24,0,0,0,0,2.66c.79,1.18,3.35,0,4.45-.12,6-.54,10.36,1.29,14.45,5.38,3.07,3.08,8.59,7.82,13.43,5.63,2-.9,3.59-3.92,5.68-5.14a16.34,16.34,0,0,1,7.85-2.23c5-.09,9.64,2.06,14.2,4,5.49,2.31,11.2,4.36,17.15,4.62a22.82,22.82,0,0,0,16-5.47c3.55-2.91,2.42-4.78,3.92-9.15,1.11-3.21,3-5.54,4.61-8.39,3.22-5.8,3-12.06,4.34-18.65l5.06-25.14c-.11.58-27.92-1.88-29.85-2-7.7-.52-15.48-1.41-23.16-1.71A10.88,10.88,0,0,0,169.74,175.8Z" fill="#f56132"></path><path d="M197.3,244.47l-1.16,0c-6.19-.27-12.06-2.42-17.48-4.7l-1-.42c-4.14-1.75-8.41-3.58-12.8-3.48a15.26,15.26,0,0,0-7.36,2.09,12.06,12.06,0,0,0-2.53,2.37,11,11,0,0,1-3.24,2.82c-4,1.81-8.88-.16-14.56-5.83-4-4-8.22-5.59-13.65-5.1a8.57,8.57,0,0,0-1,.23c-1.36.36-3.41.91-4.38-.55a4.09,4.09,0,0,1-.17-3.49,31,31,0,0,1,17.56-19.56,62,62,0,0,1,7.85-2.48c1.69-.44,3.43-.91,5.09-1.46,5-1.66,8.45-3.95,10.42-7,1.63-2.51,2.25-5.47,2.9-8.6a39.34,39.34,0,0,1,1.81-6.66,20.19,20.19,0,0,1,5.48-7.62h0a11.83,11.83,0,0,1,8-3.11c4.75.19,9.59.6,14.28,1,2.93.25,6,.51,8.92.71l3.53.29c5.94.5,23.8,2,25.86,1.8a1,1,0,0,1,.59-.06,1,1,0,0,1,.78,1.18L226,202c-.4,1.94-.65,3.89-.91,5.77-.61,4.6-1.19,8.94-3.54,13.16-.53,1-1.09,1.85-1.64,2.71a26,26,0,0,0-2.89,5.53,21.49,21.49,0,0,0-.85,3.46,8.55,8.55,0,0,1-3.38,6.13A23.71,23.71,0,0,1,197.3,244.47Zm-32.16-10.62c4.69,0,9.06,1.85,13.3,3.64l1,.42c5.25,2.21,10.92,4.29,16.8,4.54a21.79,21.79,0,0,0,15.31-5.24c2.1-1.73,2.32-2.94,2.68-5a24.29,24.29,0,0,1,.92-3.76,28.18,28.18,0,0,1,3.1-5.94c.53-.84,1.08-1.71,1.58-2.61,2.17-3.89,2.72-8,3.31-12.46.26-1.91.52-3.89.92-5.9l4.82-23.88c-2.84,0-9.44-.47-25.19-1.79l-3.5-.28c-3-.2-6-.46-9-.71-4.67-.4-9.49-.82-14.18-1a10,10,0,0,0-6.66,2.64h0a18,18,0,0,0-4.92,6.84,36.5,36.5,0,0,0-1.71,6.31c-.66,3.18-1.35,6.46-3.19,9.29-2.23,3.42-6,6-11.46,7.78-1.72.57-3.49,1-5.2,1.5a57.74,57.74,0,0,0-7.6,2.39A29,29,0,0,0,119.9,229a2.52,2.52,0,0,0-.08,1.82c.08.12.52.16,2.2-.28a8.33,8.33,0,0,1,1.31-.29c6.08-.54,10.79,1.2,15.26,5.67,5,5,9.16,6.86,12.31,5.43a9.58,9.58,0,0,0,2.58-2.33,13.55,13.55,0,0,1,3-2.77,17.34,17.34,0,0,1,8.34-2.36Zm64-57.4Z" fill="#093f68"></path><path d="M271.11,197c-.16,7.5-5.33,14.39-15.35,20.46a81.61,81.61,0,0,1-12.41,6.07l-6.21-16.66c7.67-2.88,16.05-10.12,16.05-10.12s-4.36-4.73-17.53-8.93c-1.94-.61-3.85-1.16-5.68-1.66v40.36H174.52V186.11c-1.83.5-3.73,1-5.67,1.66-13.19,4.21-17.54,8.93-17.54,8.93s9.17,7.56,16.05,10.12l-6.2,16.66c-6.43-2.39-27.45-11.39-27.75-26.53-.33-15.8,20.73-23,27.64-25.32,3.29-1.12,14.49-2.81,27.66-3.55,4-.24,8.3-.37,12.55-.38,4.91,0,9.84.15,14.52.42,13.18.76,24.39,2.39,27.67,3.51C250.37,174,271.42,181.15,271.11,197Z" fill="#706BDA"></path><path d="M230,227.47H174.52a1,1,0,0,1-1-1v-39c-1.48.41-2.94.85-4.37,1.3-9.69,3.09-14.53,6.48-16.3,7.93,2.47,1.93,9.45,7.21,14.86,9.23a1,1,0,0,1,.59,1.28l-6.21,16.65a1,1,0,0,1-1.28.59c-6.58-2.44-28.09-11.66-28.4-27.44-.34-16.5,21.2-23.86,28.28-26.28,3.55-1.2,15-2.88,28-3.61,4.23-.24,8.48-.37,12.61-.38,4.5,0,9.45.13,14.58.42,13.18.76,24.55,2.41,27.93,3.56,7.12,2.43,28.66,9.78,28.34,26.29h0c-.17,7.87-5.5,15-15.83,21.3a83.36,83.36,0,0,1-12.59,6.15,1,1,0,0,1-1.27-.59l-6.21-16.66a1,1,0,0,1,.58-1.28c6-2.26,12.55-7.33,14.87-9.22-1.75-1.44-6.59-4.85-16.3-7.94-1.41-.45-2.87-.88-4.38-1.3v39A1,1,0,0,1,230,227.47Zm-54.46-2H229V186.12a1,1,0,0,1,.39-.8,1,1,0,0,1,.87-.17c2,.53,3.9,1.1,5.72,1.67,13.28,4.23,17.78,9,18,9.2a1.05,1.05,0,0,1,.26.74,1,1,0,0,1-.35.7c-.33.29-8,6.83-15.42,9.93l5.52,14.79a83.37,83.37,0,0,0,11.3-5.62c9.71-5.89,14.72-12.49,14.87-19.63h0c.3-15.05-20.21-22-26.94-24.34-3.3-1.13-14.44-2.72-27.45-3.47-5.08-.29-10-.43-14.46-.42-4.09,0-8.3.13-12.49.38-12.67.71-24.08,2.37-27.4,3.49-6.77,2.32-27.27,9.32-27,24.36.28,13.86,19,22.47,26.16,25.25l5.51-14.79c-6.81-2.86-15-9.62-15.41-9.92a1,1,0,0,1-.1-1.44c.19-.21,4.68-5,18-9.21,1.86-.59,3.78-1.15,5.71-1.67a1,1,0,0,1,.87.17,1,1,0,0,1,.39.8ZM271.11,197h0Z" fill="#093f68"></path><path d="M215.78,168.12l-13.53,52.1-13.54-52.14c4-.24,8.3-.37,12.55-.38C206.17,167.69,211.1,167.85,215.78,168.12Z" fill="#fff"></path><path d="M202.25,221.22a1,1,0,0,1-1-.75l-13.54-52.14a1,1,0,0,1,.16-.84,1,1,0,0,1,.75-.41c4.23-.24,8.48-.37,12.61-.38,4.53,0,9.45.13,14.58.42a1,1,0,0,1,.75.41,1,1,0,0,1,.16.84l-13.53,52.1A1,1,0,0,1,202.25,221.22ZM190,169l12.26,47.23,12.25-47.19c-4.64-.24-9.08-.35-13.24-.35C197.56,168.71,193.77,168.81,190,169Z" fill="#093f68"></path><path d="M197.15,163.59h11.38a0,0,0,0,1,0,0v6.55A4.83,4.83,0,0,1,203.7,175H202a4.83,4.83,0,0,1-4.83-4.83v-6.55A0,0,0,0,1,197.15,163.59Z" transform="translate(1.29 -1.54) rotate(0.44)" fill="#ffc9b0"></path><path d="M203.69,176h-1.76a5.84,5.84,0,0,1-5.79-5.88l.05-6.55a1,1,0,0,1,1-1h0l11.38.09a1,1,0,0,1,1,1l0,6.55a5.84,5.84,0,0,1-5.83,5.79Zm0-2h0a3.84,3.84,0,0,0,3.83-3.8l0-5.55-9.38-.07,0,5.55a3.8,3.8,0,0,0,1.1,2.72,3.86,3.86,0,0,0,2.7,1.14Z" fill="#093f68"></path><path d="M163.82,131.71a19.71,19.71,0,0,1-7-4.4c-3.64-3.66-5.74-8.53-7.76-13.28a12.08,12.08,0,0,0,10.76-2.72,26.69,26.69,0,0,1-18.36-4.64c5.36-.45,9.13-5.51,11.15-10.49s3.14-10.51,6.61-14.62c4.53-5.37,9.87-5.41,16.15-4.84-.14-10.37,6.15-20,17.17-20.54,17.65-.81,27.65,18.22,37.54,16.88s12.55-5.7,12.55-5.7a18.11,18.11,0,0,1-2.26,20s7.79-2.21,8.65,8.15-5.54,37.81-5.54,37.81L236.47,132c-2.95-.54-6.66.15-9.65.22l-22.06.53C193.71,133,175.79,136.35,163.82,131.71Z" fill="#725858"></path><path d="M180.39,135.14c-6,0-12-.58-16.93-2.49a20.9,20.9,0,0,1-7.31-4.63c-3.82-3.85-6-9-8-13.59a1,1,0,0,1,.16-1,1,1,0,0,1,1-.33,11,11,0,0,0,6.82-.58,27.75,27.75,0,0,1-15.23-5,1,1,0,0,1,.49-1.81c5.89-.5,9.17-7.07,10.3-9.88.55-1.35,1.05-2.79,1.53-4.17,1.28-3.74,2.62-7.6,5.24-10.71,4.6-5.46,9.95-5.76,15.93-5.29.3-9.94,6.46-19.92,18.12-20.45,10.23-.45,18.09,5.57,24.4,10.43,4.88,3.75,9.1,7,13.05,6.46,9.2-1.24,11.81-5.2,11.83-5.24a1,1,0,0,1,.85-.47h0a1,1,0,0,1,.85.49c.06.1,5.37,9.62-1,19.27a7.2,7.2,0,0,1,3.79,1.25c2.16,1.49,3.42,4.19,3.74,8,.86,10.4-5.3,37-5.56,38.12a1,1,0,0,1-1.16.76L236.29,133a25,25,0,0,0-6.29,0c-1.11.09-2.15.18-3.15.2l-22.07.53c-2.75.06-6,.32-9.41.6C190.71,134.72,185.53,135.14,180.39,135.14Zm-29.65-19.83c1.7,4,3.72,8.17,6.83,11.3a18.74,18.74,0,0,0,6.61,4.17h0c8.74,3.39,21.1,2.38,31,1.57,3.45-.28,6.71-.55,9.53-.61l22.06-.53c.94,0,1.95-.1,3-.2a26.84,26.84,0,0,1,6.82,0l6.11,1.12c1.1-4.87,6.05-27.55,5.3-36.57-.26-3.18-1.23-5.38-2.86-6.52a6,6,0,0,0-4.53-.75,1,1,0,0,1-1.1-.42,1,1,0,0,1,.06-1.18,16.88,16.88,0,0,0,2.79-17.52c-1.61,1.52-5.18,4-12.16,4.89-4.78.64-9.3-2.83-14.54-6.86-6.37-4.9-13.59-10.45-23.09-10-10.82.49-16.35,10.19-16.22,19.52a1,1,0,0,1-.32.75,1,1,0,0,1-.77.26c-6.06-.54-11-.56-15.3,4.5-2.38,2.83-3.6,6.34-4.88,10.07-.49,1.41-1,2.87-1.56,4.28-1.12,2.74-4.09,8.71-9.48,10.58a25.79,25.79,0,0,0,15.64,3.18,1,1,0,0,1,1,.58,1,1,0,0,1-.24,1.16A13.12,13.12,0,0,1,150.74,115.31Z" fill="#093f68"></path><ellipse cx="170.58" cy="133.78" rx="9.53" ry="11.06" transform="translate(35.5 303.33) rotate(-89.56)" fill="#ffc9b0"></ellipse><path d="M170.6,144.31h-.1a13,13,0,0,1-8.45-3.1,9.63,9.63,0,0,1,.11-15,12.9,12.9,0,0,1,8.39-3h.11a13,13,0,0,1,8.44,3.1,9.63,9.63,0,0,1-.11,15A12.9,12.9,0,0,1,170.6,144.31Zm0-19.06a10.9,10.9,0,0,0-7.1,2.5,7.64,7.64,0,0,0-.09,12,11.37,11.37,0,0,0,14.34.11,7.88,7.88,0,0,0,2.93-6h0a7.88,7.88,0,0,0-2.84-6,11,11,0,0,0-7.15-2.6Z" fill="#093f68"></path><ellipse cx="235.05" cy="134.27" rx="9.53" ry="11.06" transform="translate(98.99 368.29) rotate(-89.56)" fill="#ffc9b0"></ellipse><path d="M235.07,144.8H235c-6.64-.05-12-4.82-12-10.62s5.48-10.51,12.13-10.44,12,4.82,12,10.62a9.84,9.84,0,0,1-3.64,7.47A12.9,12.9,0,0,1,235.07,144.8Zm0-19.06c-5.51,0-10,3.78-10,8.45s4.44,8.57,10,8.61a11.09,11.09,0,0,0,7.19-2.5,7.84,7.84,0,0,0,2.93-6c0-4.71-4.44-8.57-10-8.61Z" fill="#093f68"></path><path d="M202.87,165.09h0a33.36,33.36,0,0,1-33.1-33.61l.18-24.22c1.93,3.22,8.41,2,18-14.21,35.4,18.27,48.74,8,48.74,8L236.47,132A33.35,33.35,0,0,1,202.87,165.09Z" fill="#ffc9b0"></path><path d="M203.12,166.09h-.26a34.35,34.35,0,0,1-34.09-34.61l.18-24.21a1,1,0,0,1,1.86-.51,1.87,1.87,0,0,0,1.72.94h0c1.32,0,6.25-1.1,14.58-15.15a1,1,0,0,1,1.32-.38c34.43,17.77,47.54,8.25,47.67,8.15a1,1,0,0,1,1.06-.1,1,1,0,0,1,.55.9L237.47,132A34.39,34.39,0,0,1,203.12,166.09Zm-.24-2h.24A32.39,32.39,0,0,0,235.47,132l.23-29.15c-4.52,2.14-18.74,6.09-47.35-8.46-6,9.88-11.58,15.31-15.81,15.32h0a4.09,4.09,0,0,1-1.59-.3l-.17,22.1a32.33,32.33,0,0,0,32.11,32.59Z" fill="#093f68"></path><circle cx="192.08" cy="127.97" r="3.09" fill="#093f68"></circle><circle cx="216.48" cy="128.3" r="3.09" fill="#093f68"></circle><path d="M205.87,140.67a20.22,20.22,0,0,1-3.13-.27,1,1,0,0,1,.36-2,14.72,14.72,0,0,0,4.54.09c.17-.92-1-4.2-2.55-7.27a1,1,0,0,1,.44-1.35,1,1,0,0,1,1.34.43c1.07,2.09,3.46,7.16,2.55,9.13a1.66,1.66,0,0,1-1.15,1A10.09,10.09,0,0,1,205.87,140.67Z" fill="#093f68"></path><path d="M198.2,118.48H198l-14.62-1.76a2,2,0,1,1,.48-4l14.62,1.76a2,2,0,0,1-.24,4Z" fill="#093f68"></path><path d="M213.31,119.6a2,2,0,0,1-.26-4l14.61-1.9a2,2,0,1,1,.51,4l-14.6,1.9Z" fill="#093f68"></path><path d="M199.79,135.6h0l-14.84-.11a4.3,4.3,0,0,1-4.27-4.33l.07-9.2a1,1,0,0,1,1-1h0l21.43.16a1,1,0,0,1,1,1l-.07,9.2A4.31,4.31,0,0,1,199.79,135.6Zm0-2h0a2.3,2.3,0,0,0,2.3-2.28l.06-8.19L182.72,123l-.07,8.19a2.3,2.3,0,0,0,2.28,2.32Z" fill="#093f68"></path><path d="M226.41,135.8h0l-14.84-.11a4.31,4.31,0,0,1-4.27-4.33l.07-9.19a1,1,0,0,1,1-1h0l21.43.17a1,1,0,0,1,.71.29,1.05,1.05,0,0,1,.29.71l-.07,9.2A4.3,4.3,0,0,1,226.41,135.8Zm0-2a2.3,2.3,0,0,0,2.32-2.28l.06-8.19-19.43-.15-.07,8.2a2.28,2.28,0,0,0,.66,1.62,2.3,2.3,0,0,0,1.62.69Z" fill="#093f68"></path><path d="M181.7,126.5h0l-14.52-.11a1,1,0,0,1-1-1,1,1,0,0,1,1-1h0l14.53.11a1,1,0,0,1,1,1A1,1,0,0,1,181.7,126.5Z" fill="#093f68"></path><path d="M235.11,126.9h0l-5.29,0a1,1,0,1,1,0-2h0l5.3,0a1,1,0,0,1,0,2Z" fill="#093f68"></path><path d="M188,93.05a39.58,39.58,0,0,0,7.46,6.27c1.72,1.08,3.46,2.37,4.23,4.25,1.67,4-2,12.45,4.17,14.11-1.31-1.66-.66-4.23.81-5.75s3.53-2.28,5.48-3.11c3.73-1.6,7.6-4,8.63-8,.94-3.57-.85-7.42-3.56-9.93s-6.2-4-9.62-5.37" fill="#725858"></path><path d="M203.83,118.68a.82.82,0,0,1-.26,0c-4.78-1.28-4.6-6-4.47-9.73a13.3,13.3,0,0,0-.36-5c-.67-1.62-2.24-2.78-3.84-3.78a40.22,40.22,0,0,1-7.65-6.43,1,1,0,1,1,1.44-1.38A38.19,38.19,0,0,0,196,98.47c1.79,1.13,3.74,2.57,4.63,4.72.67,1.62.59,3.65.51,5.8-.11,3-.08,5.23,1,6.55a6.42,6.42,0,0,1,1.8-4.31,14.84,14.84,0,0,1,5.16-3.06l.64-.27c4.66-2,7.3-4.39,8.06-7.31s-.52-6.4-3.27-9c-2.6-2.42-6-3.82-9.32-5.17a1,1,0,1,1,.76-1.85c3.3,1.35,7.05,2.89,9.93,5.56,3.27,3,4.78,7.33,3.84,10.92s-3.95,6.38-9.21,8.64l-.65.27a13.23,13.23,0,0,0-4.5,2.61c-1.13,1.17-1.73,3.19-.74,4.44a1,1,0,0,1-.79,1.62Z" fill="#093f68"></path><path d="M204.55,154.18a16.48,16.48,0,0,1-2-.12c-8.77-1-14.15-8.13-14.37-8.43a1,1,0,1,1,1.6-1.19c.05.07,5.12,6.76,13,7.64,5.12.57,10.36-1.4,15.55-5.86a1,1,0,0,1,1.31,1.52C214.67,152,209.6,154.18,204.55,154.18Z" fill="#093f68"></path><rect x="198.19" y="175.39" width="8.43" height="6.47" rx="2.42" fill="#ffbc0e"></rect><path d="M204.2,182.86h-3.59a3.42,3.42,0,0,1-3.42-3.42v-1.63a3.42,3.42,0,0,1,3.42-3.42h3.59a3.42,3.42,0,0,1,3.42,3.42v1.63A3.42,3.42,0,0,1,204.2,182.86Zm-3.59-6.47a1.42,1.42,0,0,0-1.42,1.42v1.63a1.42,1.42,0,0,0,1.42,1.42h3.59a1.42,1.42,0,0,0,1.42-1.42v-1.63a1.42,1.42,0,0,0-1.42-1.42Z" fill="#093f68"></path><polygon points="207.42 200.32 202.25 220.22 196.57 198.36 199.99 181.86 204.82 181.86 207.42 200.32" fill="#ffbc0e"></polygon><path d="M202.25,221.22h0a1,1,0,0,1-1-.75l-5.67-21.86a.86.86,0,0,1,0-.45l3.41-16.5a1,1,0,0,1,1-.8h4.83a1,1,0,0,1,1,.86l2.6,18.46a1,1,0,0,1,0,.39l-5.17,19.9A1,1,0,0,1,202.25,221.22Zm-4.65-22.88,4.65,17.9,4.15-16L204,182.86H200.8Z" fill="#093f68"></path><path d="M166.25,209.8l8.27,5.17v11.5a32,32,0,0,1-6.73,4.35c-4.44,1.76-4.91-2.87-3.52-3.61,1.94-1,4-2.37,4-2.37s-5.48,1.44-5.69-5.3Z" fill="#ffc9b0"></path><path d="M166,232.21a3.22,3.22,0,0,1-3.06-1.88c-.7-1.51-.29-3.38.88-4,.43-.22.87-.47,1.29-.71a4.75,4.75,0,0,1-1.19-.64c-1.43-1.07-2.2-2.89-2.28-5.4a1.26,1.26,0,0,1,.06-.38l3.63-9.74a1,1,0,0,1,.62-.6,1,1,0,0,1,.85.1l8.27,5.17a1,1,0,0,1,.47.85v11.5a1,1,0,0,1-.36.77,33,33,0,0,1-7,4.51A6,6,0,0,1,166,232.21Zm2.33-8.37a1,1,0,0,1,.92.6,1,1,0,0,1-.38,1.24c-.09.06-2.15,1.37-4.11,2.41a1.59,1.59,0,0,0,.06,1.53c.52.87,1.72.63,2.62.27a29,29,0,0,0,6.1-3.9V215.52l-6.76-4.22-3.13,8.4c.08,1.76.57,3,1.45,3.65a3.94,3.94,0,0,0,3,.52A1,1,0,0,1,168.31,223.84Z" fill="#093f68"></path><path d="M238.37,209.8,230.11,215v11.5a31.78,31.78,0,0,0,6.72,4.35c4.44,1.76,4.91-2.87,3.52-3.61-1.94-1-4-2.37-4-2.37s5.47,1.44,5.68-5.3Z" fill="#ffc9b0"></path><path d="M238.64,232.21a6.05,6.05,0,0,1-2.18-.46,33,33,0,0,1-7-4.51,1,1,0,0,1-.35-.77V215a1,1,0,0,1,.47-.85l8.26-5.17a1,1,0,0,1,1.47.5l3.63,9.74a.84.84,0,0,1,.06.38c-.08,2.51-.84,4.33-2.27,5.4a5.12,5.12,0,0,1-1.19.64c.42.24.85.49,1.28.71,1.17.63,1.58,2.5.88,4A3.22,3.22,0,0,1,238.64,232.21ZM231.11,226a28.87,28.87,0,0,0,6.09,3.9c.91.36,2.1.6,2.62-.27a1.55,1.55,0,0,0,.05-1.54c-1.94-1-4-2.34-4.09-2.4a1,1,0,0,1-.38-1.24,1,1,0,0,1,1.17-.57,3.89,3.89,0,0,0,3-.51A4.69,4.69,0,0,0,241,219.7l-3.13-8.4-6.76,4.22Z" fill="#093f68"></path><path d="M174.52,190.62a1,1,0,0,1-1-1v-13a1,1,0,0,1,2,0v13A1,1,0,0,1,174.52,190.62Z" fill="#093f68"></path><path d="M230.11,190.62a1,1,0,0,1-1-1v-13a1,1,0,0,1,2,0v13A1,1,0,0,1,230.11,190.62Z" fill="#093f68"></path><path d="M170.58,169.28s5.93,13.29,13,13.85,8.81-15.43,8.81-15.43Z" fill="#f56132"></path><path d="M184,184.14h-.45c-7.57-.6-13.58-13.87-13.84-14.44a1,1,0,0,1,.06-.92,1,1,0,0,1,.78-.48l21.82-1.59a1,1,0,0,1,.79.3,1,1,0,0,1,.28.8C193.31,168.48,191.51,184.14,184,184.14Zm-11.83-14c1.66,3.26,6.38,11.56,11.54,12,4.55.36,6.87-8.62,7.58-13.35Z" fill="#093f68"></path><circle cx="183.59" cy="174.53" r="2.11" fill="#093f68"></circle><path d="M183.59,177.64a3.11,3.11,0,1,1,3.11-3.11A3.11,3.11,0,0,1,183.59,177.64Zm0-4.22a1.11,1.11,0,1,0,1.11,1.11A1.11,1.11,0,0,0,183.59,173.42Z" fill="#093f68"></path><path d="M235.62,169.28s-5.94,13.29-13,13.85-8.81-15.43-8.81-15.43Z" fill="#f56132"></path><path d="M222.25,184.14c-7.57,0-9.37-15.66-9.44-16.34a1,1,0,0,1,1.07-1.1l21.81,1.59a1,1,0,0,1,.85,1.4c-.26.57-6.27,13.84-13.84,14.44ZM215,168.78c.7,4.73,3,13.72,7.58,13.35,5.16-.4,9.87-8.7,11.54-12Z" fill="#093f68"></path><circle cx="222.6" cy="174.53" r="2.11" fill="#093f68"></circle><path d="M222.6,177.64a3.11,3.11,0,1,1,3.11-3.11A3.1,3.1,0,0,1,222.6,177.64Zm0-4.22a1.11,1.11,0,1,0,1.11,1.11A1.11,1.11,0,0,0,222.6,173.42Z" fill="#093f68"></path><rect x="174.52" y="224.84" width="55.59" height="18.8" fill="#093f68"></rect><path d="M230.11,244.64H174.52a1,1,0,0,1-1-1v-18.8a1,1,0,0,1,1-1h55.59a1,1,0,0,1,1,1v18.8A1,1,0,0,1,230.11,244.64Zm-54.59-2h53.59v-16.8H175.52Z" fill="#093f68"></path><path d="M135.42,146h-.15l-37.43-5.38a1,1,0,0,1,.28-2L135.56,144a1,1,0,0,1-.14,2Z" fill="#dfeaef"></path><path d="M131.43,120.73a1,1,0,0,1-.92-.61c-.86-1.34-11.65-10.11-21.42-17.72a1,1,0,0,1-.18-1.4,1,1,0,0,1,1.41-.18c8,6.21,21.45,16.88,22.05,18.58a1,1,0,0,1-.61,1.27A1,1,0,0,1,131.43,120.73Zm-1-.67,0,0Z" fill="#dfeaef"></path><path d="M105.25,182.86a1,1,0,0,1-.42-1.91L135,166.79a1,1,0,1,1,.85,1.81l-30.16,14.16A.94.94,0,0,1,105.25,182.86Z" fill="#dfeaef"></path><path d="M261.28,147.32a1,1,0,0,1-.12-2l33.27-4a1,1,0,0,1,1.11.87,1,1,0,0,1-.87,1.12l-33.27,4Z" fill="#dfeaef"></path><path d="M265.23,120.73a1,1,0,0,1-.61-1.8l23.92-18.12a1,1,0,0,1,1.2,1.6l-23.91,18.12A1,1,0,0,1,265.23,120.73Z" fill="#dfeaef"></path><path d="M297,186.66a1,1,0,0,1-.53-.15l-28.92-18a1,1,0,0,1,1.06-1.7l28.92,18a1,1,0,0,1,.32,1.38A1,1,0,0,1,297,186.66Z" fill="#dfeaef"></path></g></svg>